<svg width="24" height="24" viewBox="0 0 24 24" fill="none" xmlns="http://www.w3.org/2000/svg">
<path d="M22.56 12.25C22.56 11.47 22.49 10.72 22.36 10H12V14.255H17.92C17.665 15.63 16.89 16.795 15.725 17.575V20.335H19.28C21.36 18.42 22.56 15.6 22.56 12.25Z" fill="#4285F4"/>
<path d="M12.0009 23.0037C14.9709 23.0037 17.4609 22.0187 19.2809 20.3387L15.7259 17.5788C14.7409 18.2388 13.4809 18.6287 12.0009 18.6287C9.1359 18.6287 6.7109 16.6937 5.8459 14.0938H2.1709V16.9438C3.9809 20.5388 7.7009 23.0037 12.0009 23.0037Z" fill="#34A853"/>
<path d="M5.84402 14.0925C5.62402 13.4325 5.49902 12.7275 5.49902 12.0025C5.49902 11.2775 5.62402 10.5725 5.84402 9.9125V7.0625H2.16902C1.39902 8.59536 0.998345 10.2871 0.999024 12.0025C0.999024 13.7775 1.42402 15.4575 2.16902 16.9425L5.84402 14.0925Z" fill="#FBBC05"/>
<path d="M12.0009 5.375C13.6159 5.375 15.0659 5.93 16.2059 7.02L19.3609 3.865C17.4559 2.09 14.9659 1 12.0009 1C7.7009 1 3.9809 3.465 2.1709 7.06L5.8459 9.91C6.7109 7.31 9.1359 5.375 12.0009 5.375Z" fill="#EA4335"/>
</svg>
