<svg width="48" height="48" viewBox="0 0 48 48" fill="none" xmlns="http://www.w3.org/2000/svg">
<g clip-path="url(#clip0_101_9735)">
<path d="M42.5251 24.2237C42.5787 34.4974 34.2941 42.8706 24.0194 42.9233C13.745 42.9771 5.37224 34.6913 5.31892 24.4176C5.26513 14.1433 13.5509 5.76993 23.8256 5.71614C34.1002 5.66298 42.4716 13.9481 42.5251 24.2237Z" fill="#D3B62A"/>
<path d="M40.4852 28.0511C40.4852 28.0511 41.4283 24.1182 40.5777 20.1974C40.0957 17.9775 38.9822 15.5643 36.9737 13.2298C36.9737 13.2298 33.2597 8.05846 25.572 7.3294C25.572 7.3294 20.065 6.73577 18.1607 11.1188C18.1607 11.1188 16.9134 13.498 18.42 16.3005C18.9662 17.3168 19.9708 18.2763 21.6121 19.0321C21.6121 19.0321 24.5825 20.2774 27.9073 18.0361C27.9073 18.0361 30.2712 16.6153 32.8747 17.4625C34.0171 17.8346 37.8371 18.9149 37.9546 24.4741C37.9546 24.4741 39.7051 25.598 40.4852 28.0511Z" fill="#EA2227"/>
<path d="M28.5495 13.3638C28.5632 15.9013 26.5158 17.9695 23.9777 17.983C21.44 17.9963 19.3719 15.9499 19.3591 13.4118C19.3458 10.8735 21.3925 8.80594 23.9303 8.79249C26.4673 8.77856 28.536 10.8255 28.5495 13.3638Z" fill="white"/>
<path d="M12.3816 36.9383C12.3816 36.9383 15.3301 39.708 19.1565 40.9122C21.3232 41.5951 23.9713 41.8236 26.9945 41.237C26.9945 41.237 33.3265 40.5744 37.7699 34.2606C37.7699 34.2606 41.0159 29.7716 38.1536 25.9452C38.1536 25.9452 36.7062 23.6813 33.5258 23.6016C32.3734 23.5726 31.0408 23.9695 29.5702 25.0183C29.5702 25.0183 27.0164 26.9818 27.3143 30.9795C27.3143 30.9795 27.3763 33.7376 25.3497 35.579C24.4605 36.387 21.6286 39.1688 16.7426 36.5136C16.7426 36.5136 14.9001 37.4771 12.3816 36.9383Z" fill="white"/>
<path d="M31.0546 33.8549C28.844 32.608 28.0621 29.8047 29.3091 27.5947C30.5564 25.3828 33.3585 24.6027 35.5702 25.8487C37.7803 27.0956 38.5623 29.899 37.3144 32.109C36.0673 34.3197 33.2652 35.101 31.0546 33.8549Z" fill="#204496"/>
<path d="M18.7231 8.00211C18.7231 8.00211 14.8491 9.1663 11.8903 11.8772C10.2143 13.4101 8.69067 15.5889 7.6848 18.4986C7.6848 18.4986 5.08712 24.3111 8.32709 31.3192C8.32709 31.3192 10.5875 36.3771 15.3329 35.8158C15.3329 35.8158 18.0161 35.6965 19.6788 32.9831C20.2806 32.0004 20.6048 30.6486 20.4337 28.8499C20.4337 28.8499 20.0128 25.6562 16.4024 23.913C16.4024 23.913 13.9845 22.5849 13.4064 19.9089C13.1518 18.7341 12.1629 14.8911 16.907 11.9905C16.907 11.9905 16.9949 9.9117 18.7231 8.00211Z" fill="#204496"/>
<path d="M12.0227 25.6455C14.2149 24.3672 17.0285 25.1086 18.3068 27.3018C19.585 29.4945 18.8433 32.3076 16.6512 33.5854C14.4577 34.8648 11.6442 34.1223 10.3662 31.9301C9.08755 29.7375 9.83006 26.9234 12.0227 25.6455Z" fill="#EA2227"/>
<path d="M3.304 21.9141C3.304 22.156 3.10613 22.3503 2.86295 22.3503C2.61832 22.3503 2.41965 22.1558 2.41965 21.9141C2.41917 21.6739 2.61752 21.4789 2.86247 21.4789C3.10549 21.4789 3.30336 21.6739 3.304 21.9141Z" fill="#231F20"/>
<path d="M3.304 21.9141C3.304 22.156 3.10613 22.3503 2.86295 22.3503C2.61832 22.3503 2.41965 22.1558 2.41965 21.9141C2.41917 21.6739 2.61752 21.4789 2.86247 21.4789C3.10549 21.4789 3.30336 21.6739 3.304 21.9141Z" stroke="#231F20" stroke-width="0.3397"/>
<path d="M45.5842 22.1352C45.5842 22.3771 45.3862 22.572 45.1431 22.572C44.8979 22.572 44.7011 22.3771 44.7011 22.1352C44.7011 21.895 44.8979 21.6999 45.1431 21.6999C45.386 21.6999 45.5842 21.8949 45.5842 22.1352Z" fill="#231F20"/>
<path d="M45.5842 22.1352C45.5842 22.3771 45.3862 22.572 45.1431 22.572C44.8979 22.572 44.7011 22.3771 44.7011 22.1352C44.7011 21.895 44.8979 21.6999 45.1431 21.6999C45.386 21.6999 45.5842 21.8949 45.5842 22.1352Z" stroke="#231F20" stroke-width="0.3397"/>
<path d="M4.35279 23.8643L1.63504 23.9706L1.62128 23.6223L4.33854 23.5171L4.35279 23.8643Z" fill="#231F20"/>
<path d="M3.08869 24.5582C3.29361 24.5345 3.45338 24.5124 3.61299 24.4823L3.64885 24.7877L3.33395 24.8438L3.33523 24.8513C3.52606 24.9248 3.7321 25.1239 3.77037 25.4382C3.8011 25.7009 3.68872 26.1268 3.02321 26.2031L1.86509 26.3363L1.82411 25.9902L2.94268 25.8623C3.25535 25.8258 3.50637 25.6823 3.46795 25.3577C3.44089 25.1337 3.25631 24.9763 3.05203 24.936C3.00624 24.9249 2.9414 24.9243 2.88473 24.9312L1.71445 25.0655L1.6741 24.7207L3.08869 24.5582Z" fill="#231F20"/>
<path d="M3.20907 28.1097C3.25597 28.0997 3.3104 28.0853 3.35555 28.0634C3.56271 27.9701 3.7068 27.7485 3.65413 27.4927C3.5824 27.1408 3.22363 26.9949 2.80403 27.0777C2.41164 27.1558 2.131 27.4093 2.2056 27.774C2.25251 28.0019 2.45375 28.1796 2.7235 28.1894C2.77265 28.1918 2.82052 28.186 2.87623 28.1752L3.20907 28.1097ZM4.95152 28.1159L2.63785 28.5783C2.46767 28.612 2.27508 28.6537 2.14653 28.6918L2.08345 28.3863L2.41324 28.3042L2.41084 28.2962C2.17518 28.2349 1.96754 28.0426 1.90575 27.7371C1.81257 27.2846 2.13196 26.8541 2.71358 26.7383C3.35315 26.6064 3.8211 26.92 3.9138 27.3726C3.97351 27.663 3.87505 27.8841 3.7409 27.9952L3.74314 28.0027L4.88156 27.7748L4.95152 28.1159Z" fill="#231F20"/>
<path d="M4.5958 28.9071C4.56202 28.7809 4.64143 28.6698 4.76246 28.6391C4.88221 28.6079 5.00436 28.6698 5.0391 28.8C5.07384 28.9297 4.99844 29.0385 4.87821 29.0696C4.7567 29.1021 4.63294 29.0437 4.59708 28.9105L4.5958 28.9071ZM2.31735 29.3272L4.20565 28.8376L4.29579 29.1727L2.40652 29.6627L2.31735 29.3272Z" fill="#231F20"/>
<path d="M3.84913 30.9776C3.7385 30.6137 3.53999 30.2253 3.17898 30.3399C2.95565 30.4105 2.90362 30.5854 2.95677 30.7496C3.03441 30.9915 3.23933 31.0957 3.41463 31.0981C3.4521 31.0986 3.49148 31.09 3.52686 31.0796L3.84913 30.9776ZM3.45113 31.4604C3.29024 31.5113 3.13511 31.5691 3.01344 31.6282L2.91674 31.3308L3.14199 31.2265L3.13847 31.215C2.95965 31.1641 2.76449 31.0061 2.68013 30.7474C2.55973 30.3782 2.76353 30.1062 3.03201 30.0212C3.48235 29.8789 3.85473 30.1914 4.08062 30.8955L4.11856 30.8828C4.27257 30.8341 4.53881 30.7033 4.4149 30.3331C4.35806 30.1606 4.25048 29.9996 4.12097 29.9002L4.32252 29.7526C4.46709 29.8729 4.60493 30.0739 4.68017 30.3017C4.86316 30.8625 4.5188 31.1212 4.14658 31.2392L3.45113 31.4604Z" fill="#231F20"/>
<path d="M4.56553 31.7347C4.75604 31.6577 4.90365 31.5917 5.04773 31.5206L5.16748 31.8042L4.88044 31.9431L4.88348 31.9506C5.08904 31.9697 5.34231 32.1058 5.4651 32.3963C5.56852 32.6411 5.57908 33.0814 4.96048 33.3338L3.88337 33.7765L3.74858 33.4554L4.78854 33.0293C5.07911 32.9101 5.28051 32.7031 5.1526 32.4008C5.06454 32.1932 4.84249 32.0907 4.63581 32.1098C4.58891 32.1111 4.52519 32.1272 4.47364 32.1492L3.3858 32.596L3.24973 32.2755L4.56553 31.7347Z" fill="#231F20"/>
<path d="M7.17137 34.2318L4.78374 35.5142L4.61484 35.2092L7.00359 33.9262L7.17137 34.2318Z" fill="#231F20"/>
<path d="M6.33587 35.3891C6.50877 35.2793 6.64148 35.1901 6.77196 35.0939L6.94102 35.3533L6.68295 35.5396L6.68759 35.5467C6.89251 35.5281 7.16675 35.6177 7.34109 35.8833C7.48566 36.1051 7.57467 36.5367 7.01242 36.895L6.03201 37.5177L5.84102 37.226L6.78781 36.6242C7.05292 36.4565 7.21382 36.2181 7.03307 35.9426C6.90868 35.754 6.67254 35.692 6.47098 35.7447C6.42584 35.7553 6.36692 35.7828 6.31954 35.8135L5.32936 36.4425L5.13837 36.1497L6.33587 35.3891Z" fill="#231F20"/>
<path d="M6.72985 37.8522C6.7457 37.9759 6.80238 38.1623 6.91044 38.2995C7.06669 38.4956 7.23863 38.5129 7.36943 38.4122C7.50182 38.3081 7.51351 38.1749 7.43122 37.9168C7.31564 37.5649 7.3635 37.3219 7.54697 37.1796C7.79576 36.9875 8.15629 37.0285 8.41148 37.348C8.53171 37.5008 8.59766 37.6664 8.60759 37.7891L8.35592 37.8781C8.34376 37.792 8.31078 37.642 8.20079 37.5019C8.07112 37.3399 7.90686 37.3283 7.79223 37.4169C7.66256 37.5169 7.67521 37.6484 7.75413 37.9029C7.86059 38.2373 7.83626 38.477 7.60476 38.6553C7.33165 38.8671 6.97576 38.807 6.69623 38.4557C6.56544 38.2908 6.48795 38.1045 6.46826 37.9498L6.72985 37.8522Z" fill="#231F20"/>
<path d="M9.63955 38.1259L9.29359 38.4373L9.63379 38.8042L9.43351 38.9835L9.09331 38.6166L8.31494 39.3162C8.13611 39.4777 8.0812 39.6177 8.21376 39.7601C8.2786 39.8314 8.32294 39.8666 8.36937 39.8933L8.18014 40.0855C8.11626 40.0518 8.02613 39.9888 7.93408 39.8898C7.82377 39.7701 7.77622 39.6359 7.78759 39.5142C7.80376 39.3719 7.90478 39.2259 8.0748 39.0738L8.86166 38.3661L8.66026 38.1467L8.85942 37.9673L9.06145 38.1861L9.32705 37.9476L9.63955 38.1259Z" fill="#231F20"/>
<path d="M10.2846 38.936C10.1895 38.8446 10.1999 38.7104 10.2865 38.6212C10.3747 38.5338 10.5108 38.5258 10.6084 38.619C10.7056 38.7128 10.6986 38.8447 10.612 38.9339C10.5239 39.0218 10.3873 39.0351 10.2865 38.9386L10.2846 38.936ZM8.55011 40.4522L9.9133 39.0737L10.165 39.3162L8.80274 40.6953L8.55011 40.4522Z" fill="#231F20"/>
<path d="M11.2166 39.6305L10.9094 39.9806L11.2908 40.3059L11.1135 40.5078L10.7322 40.1818L10.043 40.9666C9.88433 41.1477 9.84623 41.2935 9.99448 41.4197C10.0673 41.4828 10.1147 41.5124 10.1647 41.5343L10.0002 41.7461C9.93316 41.7202 9.8347 41.6693 9.73305 41.5806C9.60785 41.4741 9.5451 41.3468 9.54253 41.2242C9.54093 41.0806 9.62418 40.9256 9.77451 40.7537L10.4724 39.9603L10.245 39.7659L10.4221 39.5645L10.6494 39.7578L10.8838 39.4904L11.2166 39.6305Z" fill="#231F20"/>
<path d="M12.0813 42.6205C11.9636 42.7838 11.864 42.9284 11.7854 43.0586L11.5302 42.8791L11.6991 42.6117L11.6934 42.6071C11.5294 42.6823 11.2408 42.7286 10.9608 42.5307C10.7131 42.3559 10.5173 42.0075 10.9152 41.4613L11.5799 40.5459L11.8658 40.7466L11.2397 41.6118C11.0226 41.9092 10.9694 42.1788 11.227 42.3605C11.4185 42.4966 11.6484 42.4588 11.7953 42.3652C11.8392 42.3378 11.8868 42.2928 11.9261 42.2384L12.6217 41.2801L12.9086 41.4828L12.0813 42.6205Z" fill="#231F20"/>
<path d="M14.0059 41.5905L13.7687 41.9875L14.2038 42.2397L14.0672 42.4696L13.6319 42.2177L13.099 43.1125C12.9764 43.3185 12.9653 43.4689 13.1344 43.5672C13.2171 43.6147 13.27 43.6366 13.3225 43.6495L13.1998 43.8867C13.1286 43.8728 13.0237 43.8404 12.9064 43.7721C12.7645 43.6898 12.6795 43.5765 12.6534 43.4549C12.627 43.3144 12.6794 43.1471 12.7959 42.9515L13.3353 42.0452L13.0764 41.8958L13.213 41.6654L13.4715 41.8154L13.6539 41.5092L14.0059 41.5905Z" fill="#231F20"/>
<path d="M15.2623 43.6813C15.3688 43.4892 15.45 43.1351 15.1015 42.9551C14.7826 42.7907 14.495 43.0094 14.3548 43.2108L15.2623 43.6813ZM14.2323 43.4308C14.017 43.8544 14.1907 44.164 14.5017 44.326C14.7246 44.4418 14.8837 44.4749 15.0214 44.488L14.9612 44.7359C14.8259 44.7272 14.6026 44.6883 14.3293 44.5465C13.805 44.2746 13.6726 43.7606 13.9445 43.2497C14.2205 42.7329 14.7449 42.487 15.2444 42.7462C15.8049 43.0368 15.6888 43.6016 15.5217 43.9152C15.4879 43.9777 15.4578 44.0263 15.4325 44.0564L14.2323 43.4308Z" fill="#231F20"/>
<path d="M17.4122 45.4806C17.7345 45.5767 18.0678 45.3476 18.1962 44.928C18.2918 44.6167 18.2543 44.1779 17.8562 44.0577C17.4616 43.9407 17.1769 44.2556 17.0704 44.6051C16.9452 45.0096 17.0831 45.3828 17.4082 45.4801L17.4122 45.4806ZM17.3237 45.7288C16.8253 45.5795 16.5469 45.098 16.7253 44.5152C16.9139 43.8978 17.4347 43.6581 17.9446 43.8104C18.4775 43.9695 18.7192 44.4603 18.5483 45.0216C18.3382 45.7055 17.7681 45.8607 17.3277 45.7294L17.3237 45.7288Z" fill="#231F20"/>
<path d="M18.9008 46.0894L19.241 44.4632L18.9788 44.411L19.0332 44.1494L19.2953 44.2034L19.3145 44.1136C19.3699 43.8485 19.4834 43.6194 19.6755 43.5007C19.8306 43.4018 20.0136 43.3868 20.1708 43.418C20.297 43.4434 20.3919 43.4919 20.4532 43.5331L20.3548 43.7884C20.3051 43.7548 20.2425 43.7218 20.1407 43.701C19.8501 43.6413 19.7171 43.8821 19.6582 44.1714L19.6361 44.2721L20.0944 44.3659L20.04 44.6268L19.5865 44.5349L19.2451 46.1597L18.9008 46.0894Z" fill="#231F20"/>
<path d="M21.6473 44.102L20.8296 44.0321L20.8555 43.7375L22.8458 43.9106L22.8197 44.2034L21.9984 44.1333L21.7855 46.5108L21.4349 46.4812L21.6473 44.102Z" fill="#231F20"/>
<path d="M24.0366 45.4255C24.0412 45.2062 23.9452 44.8561 23.5536 44.8548C23.1929 44.8542 23.0401 45.1812 23.0117 45.4244L24.0366 45.4255ZM23.0076 45.675C23.0158 46.1477 23.3157 46.3435 23.668 46.3435C23.9197 46.344 24.0761 46.3001 24.2043 46.2484L24.2682 46.4956C24.1432 46.5518 23.9279 46.6189 23.6189 46.6189C23.0275 46.6178 22.6668 46.223 22.6675 45.6466C22.6681 45.0621 23.0169 44.6038 23.5806 44.6049C24.2138 44.6062 24.3782 45.1588 24.3782 45.513C24.3772 45.584 24.3729 45.6409 24.3654 45.6801L23.0076 45.675Z" fill="#231F20"/>
<path d="M26.3567 46.3486C26.2681 46.4008 26.0714 46.4865 25.812 46.5102C25.2309 46.5622 24.8156 46.2034 24.761 45.6132C24.7056 45.024 25.0737 44.5553 25.702 44.498C25.9097 44.48 26.0979 44.5141 26.1986 44.5558L26.1431 44.8295C26.0562 44.7937 25.9196 44.7589 25.7288 44.7751C25.2858 44.8156 25.0775 45.1652 25.1142 45.5656C25.1558 46.01 25.4683 46.2572 25.8503 46.2231C26.0506 46.2046 26.1767 46.145 26.2721 46.093L26.3567 46.3486Z" fill="#231F20"/>
<path d="M26.4245 43.5592L26.771 43.4969L26.9937 44.6773L27.0018 44.6761C27.0388 44.5686 27.1081 44.4621 27.2042 44.3886C27.2946 44.3081 27.4097 44.2492 27.5402 44.2248C27.7959 44.1786 28.2345 44.2594 28.3585 44.9134L28.5709 46.0396L28.2241 46.1034L28.0181 45.0165C27.9601 44.7075 27.7983 44.4738 27.4719 44.534C27.2472 44.5745 27.1036 44.7631 27.0726 44.9629C27.0622 45.0136 27.0675 45.0652 27.0801 45.1311L27.2948 46.2747L26.9493 46.3373L26.4245 43.5592Z" fill="#231F20"/>
<path d="M28.9144 44.5164C28.8571 44.3207 28.8088 44.1698 28.752 44.0198L29.0516 43.9343L29.1599 44.2304L29.168 44.2282C29.2095 44.0308 29.3744 43.7958 29.6824 43.7092C29.94 43.6362 30.3846 43.6756 30.5709 44.3092L30.8943 45.4139L30.5557 45.5106L30.2439 44.4434C30.156 44.1454 29.9707 43.9243 29.6512 44.0158C29.432 44.0784 29.3052 44.2842 29.2985 44.4892C29.296 44.5354 29.3052 44.598 29.3209 44.6523L29.648 45.7693L29.3092 45.8653L28.9144 44.5164Z" fill="#231F20"/>
<path d="M32.2659 44.6872C32.5795 44.5668 32.6988 44.1837 32.5385 43.7763C32.4188 43.4718 32.1143 43.1477 31.728 43.2965C31.3424 43.4441 31.3144 43.8641 31.4492 44.2055C31.6039 44.598 31.9452 44.8098 32.262 44.6882L32.2659 44.6872ZM32.3504 44.936C31.8653 45.1223 31.3447 44.911 31.121 44.3446C30.8851 43.7428 31.1454 43.2382 31.642 43.0477C32.1599 42.8493 32.6581 43.0899 32.8734 43.6351C33.1361 44.3023 32.7838 44.7706 32.3544 44.9349L32.3504 44.936Z" fill="#231F20"/>
<path d="M32.5465 41.7474L32.8672 41.6027L34.0586 44.1728L33.7379 44.3163L32.5465 41.7474Z" fill="#231F20"/>
<path d="M35.3468 43.2989C35.6408 43.138 35.7074 42.7435 35.4925 42.3591C35.3316 42.0745 34.9874 41.7938 34.6227 41.9917C34.2617 42.1885 34.291 42.6092 34.4718 42.9286C34.6785 43.2989 35.0446 43.4621 35.3428 43.3001L35.3468 43.2989ZM35.4648 43.535C35.0087 43.7822 34.4635 43.6427 34.1665 43.1096C33.8485 42.5453 34.0389 42.0101 34.5049 41.7572C34.9922 41.4916 35.5189 41.6633 35.8058 42.175C36.1566 42.8024 35.8707 43.3128 35.4685 43.5326L35.4648 43.535Z" fill="#231F20"/>
<path d="M37.2166 40.9C37.1815 40.8561 37.146 40.8168 37.1045 40.7878C36.9249 40.6629 36.6889 40.6311 36.4832 40.7878C36.2154 40.9898 36.1992 41.3577 36.477 41.7149C36.7086 42.0112 37.0615 42.1455 37.3595 41.9198C37.5339 41.7879 37.6054 41.5628 37.5235 41.3388C37.5049 41.2833 37.4692 41.2248 37.4303 41.1744L37.2166 40.9ZM38.0436 41.3915C38.3183 41.7461 38.411 42.0123 38.3701 42.2578C38.3231 42.5094 38.1437 42.7208 37.9505 42.8677C37.7668 43.0067 37.5286 43.1154 37.3423 43.128L37.2432 42.8607C37.3973 42.8493 37.5997 42.7867 37.7896 42.642C38.0766 42.4255 38.1703 42.1188 37.8682 41.7306L37.7382 41.5628L37.7316 41.5679C37.7593 41.7722 37.6796 42.0135 37.441 42.194C37.0615 42.4822 36.5359 42.3678 36.2048 41.9411C35.8022 41.4238 35.9155 40.8757 36.2704 40.6066C36.5384 40.4047 36.7866 40.4313 36.9548 40.5052L36.9612 40.5006L36.7941 40.2657L37.0413 40.0781C37.1154 40.1927 37.2075 40.3189 37.3533 40.5052L38.0436 41.3915Z" fill="#231F20"/>
<path d="M37.5582 39.6149L38.6598 40.1479C38.7849 40.2062 38.9261 40.2833 39.0314 40.344L39.0372 40.3382C38.9818 40.2311 38.9064 40.0968 38.8428 39.9638L38.3247 38.8873L38.5932 38.6315L39.1785 39.9828C39.4608 40.6315 39.5744 40.9926 39.5499 41.3092C39.5262 41.5354 39.447 41.693 39.3948 41.7653L39.1238 41.6142C39.1715 41.5362 39.2152 41.4163 39.2258 41.2786C39.2419 41.1587 39.2304 40.9823 39.1656 40.796C39.1518 40.7588 39.1435 40.7334 39.1262 40.7159C39.1129 40.702 39.0868 40.6876 39.045 40.672L37.2811 39.8781L37.5582 39.6149Z" fill="#231F20"/>
<path d="M42.0818 37.2376C42.0352 37.3956 41.9184 37.6935 41.6979 37.9806C41.4519 38.3023 41.165 38.5037 40.804 38.5604C40.4828 38.6084 40.1061 38.5053 39.7682 38.2542C39.1222 37.7721 38.9851 36.9811 39.5303 36.2693C39.7185 36.0239 39.9233 35.8689 40.0376 35.8122L40.2129 36.0506C40.0723 36.1235 39.925 36.237 39.7605 36.451C39.3641 36.9678 39.4336 37.5494 39.9782 37.9556C40.5286 38.3648 41.1001 38.286 41.481 37.7884C41.6193 37.609 41.687 37.4678 41.7032 37.3797L41.0567 36.8972L40.7282 37.3266L40.503 37.1577L41.0388 36.4598L42.0818 37.2376Z" fill="#231F20"/>
<path d="M42.9412 35.0372C43.1157 35.1379 43.271 35.2225 43.4098 35.2884L43.2519 35.5547L42.9665 35.4123L42.9619 35.4192C43.0541 35.5732 43.1267 35.8528 42.953 36.1462C42.7992 36.4043 42.4659 36.6289 41.8767 36.2884L40.8912 35.7213L41.0684 35.4199L41.9994 35.9568C42.3202 36.1414 42.598 36.1693 42.7576 35.9003C42.8764 35.6994 42.8162 35.4772 42.7092 35.3417C42.6772 35.3012 42.6276 35.2583 42.5683 35.2249L41.5378 34.63L41.7155 34.3301L42.9412 35.0372Z" fill="#231F20"/>
<path d="M42.0522 33.6993L43.0642 33.8503C43.2846 33.8879 43.4942 33.9209 43.6933 33.9661L43.6981 33.9555C43.5344 33.8386 43.3669 33.6992 43.1969 33.5575L42.4099 32.8833L42.528 32.6149L43.5438 32.7242C43.7827 32.7485 43.9969 32.7798 44.197 32.8175L44.2016 32.8071C44.0327 32.7 43.8648 32.5728 43.678 32.4252L42.8874 31.792L43.0253 31.4772L44.5714 32.8052L44.4448 33.0947L43.4713 32.9986C43.2411 32.9748 43.0408 32.9499 42.8106 32.903L42.8071 32.9106C43.0032 33.0449 43.1681 33.1797 43.3338 33.3231L44.063 33.9685L43.9354 34.2577L41.911 34.0256L42.0522 33.6993Z" fill="#231F20"/>
<path d="M44.3166 30.4707C44.1952 30.8308 44.1326 31.2613 44.4943 31.3717C44.7184 31.4395 44.863 31.3274 44.9151 31.1617C44.9902 30.9198 44.8855 30.7184 44.7437 30.6172C44.7125 30.5946 44.6748 30.5802 44.6404 30.5697L44.3166 30.4707ZM44.923 30.3001C45.0852 30.3499 45.2449 30.3908 45.3785 30.4094L45.2856 30.708L45.04 30.667L45.0378 30.6774C45.1535 30.8209 45.2212 31.0605 45.1396 31.3208C45.0239 31.6906 44.6987 31.7977 44.4288 31.7155C43.9776 31.5783 43.8542 31.1106 44.0788 30.407L44.0401 30.3955C43.8861 30.3479 43.5921 30.3028 43.4788 30.6779C43.4242 30.8521 43.418 31.0442 43.4669 31.1998L43.2159 31.2062C43.1666 31.0263 43.1716 30.7826 43.2438 30.5533C43.4197 29.9919 43.8513 29.9735 44.2253 30.0875L44.923 30.3001Z" fill="#231F20"/>
<path d="M42.7598 29.1415L42.8352 28.8011L44.026 29.0576L44.0271 29.0496C43.9404 28.9732 43.8686 28.8701 43.8361 28.7539C43.7953 28.6404 43.786 28.5125 43.8137 28.3854C43.8693 28.1348 44.1152 27.7684 44.7744 27.9084L45.9085 28.1527L45.8346 28.4905L44.7386 28.257C44.4274 28.1897 44.1454 28.2475 44.0763 28.5671C44.0274 28.7869 44.148 28.9907 44.3227 29.0965C44.3654 29.126 44.4165 29.1412 44.4834 29.1549L45.6353 29.4013L45.5599 29.7406L42.7598 29.1415Z" fill="#231F20"/>
<path d="M45.1779 26.317C45.1182 26.6906 45.1274 27.1264 45.5037 27.1768C45.735 27.2071 45.8595 27.0726 45.8832 26.9008C45.9178 26.6503 45.7809 26.4686 45.6239 26.3922C45.5892 26.376 45.5491 26.3661 45.5139 26.3615L45.1779 26.317ZM45.748 26.0506C45.9157 26.0725 46.0816 26.0866 46.2166 26.0842L46.1738 26.3938L45.925 26.392L45.9237 26.4042C46.0616 26.5264 46.1685 26.7508 46.132 27.0215C46.079 27.4053 45.7766 27.5633 45.4957 27.5257C45.028 27.4637 44.8289 27.0215 44.9329 26.2912L44.8924 26.2861C44.7328 26.2646 44.4354 26.268 44.3861 26.6557C44.3614 26.8363 44.3878 27.0273 44.4618 27.1727L44.2156 27.2196C44.1368 27.0494 44.1 26.8097 44.1334 26.5702C44.213 25.988 44.6369 25.9007 45.0239 25.9534L45.748 26.0506Z" fill="#231F20"/>
<path d="M43.8915 24.8619L44.3585 24.899L44.3979 24.4024L44.6675 24.4232L44.6268 24.9192L45.678 25.0003C45.9185 25.0194 46.0609 24.9627 46.0765 24.7693C46.0842 24.6755 46.0803 24.6195 46.0686 24.5679L46.3389 24.5726C46.3573 24.6408 46.3738 24.7484 46.3632 24.8838C46.3504 25.0434 46.2833 25.1708 46.1848 25.2454C46.0694 25.3316 45.8922 25.3572 45.6629 25.3399L44.6004 25.2576L44.5777 25.5528L44.3081 25.532L44.3308 25.2368L43.9732 25.2089L43.8915 24.8619Z" fill="#231F20"/>
<path d="M46.3653 24.0923L44.4139 24.0126L44.4285 23.6653L46.3803 23.7452L46.3653 24.0923ZM44.0622 23.8329C44.0558 23.9626 43.9475 24.046 43.8231 24.0401C43.6983 24.0343 43.6005 23.9405 43.6073 23.8064C43.612 23.6722 43.7162 23.5899 43.8411 23.5946C43.9661 23.6003 44.0679 23.6906 44.0622 23.8294V23.8329Z" fill="#231F20"/>
<path d="M29.6149 1.88734L29.2889 2.09338L29.0882 1.7764L29.4035 1.56219L29.6149 1.88734Z" fill="#231F20"/>
<path d="M29.6149 1.88734L29.2889 2.09338L29.0882 1.7764L29.4035 1.56219L29.6149 1.88734Z" stroke="#231F20" stroke-width="0.1019"/>
<path d="M28.6327 3.83312C28.6201 3.83424 28.5511 3.83008 28.4256 3.82031C28.2999 3.8099 28.2033 3.79726 28.135 3.78509C28.048 3.76892 27.9371 3.70456 27.8017 3.59522C27.7564 3.56 27.6952 3.50445 27.6171 3.42792C27.5945 3.46154 27.5759 3.4886 27.5596 3.50957C27.5133 3.56976 27.4611 3.61491 27.403 3.64741C27.3444 3.67815 27.2764 3.70632 27.1973 3.73482C27.1858 3.73642 27.1696 3.74122 27.1483 3.74811C27.1789 3.83488 27.2042 3.90388 27.2263 3.95415C27.2948 4.12369 27.3529 4.25624 27.403 4.35102C27.4541 4.44483 27.5164 4.55066 27.5892 4.66944C27.6299 4.72964 27.6702 4.7916 27.7127 4.85339L27.5558 4.90446C27.5489 4.90334 27.4909 4.79512 27.3854 4.57979C27.2468 4.30427 27.143 4.07326 27.0748 3.88883C26.9695 3.60867 26.9288 3.40887 26.9509 3.29088C26.9653 3.21676 27.0026 3.18618 27.0627 3.19707L27.3765 3.25726L27.5298 2.47376L26.934 2.36026L26.9813 2.1206L28.5818 2.4251L28.5344 2.66411L27.8158 2.52868C27.8121 2.56166 27.8098 2.58951 27.8094 2.61256C27.8013 2.77922 27.7925 2.88857 27.7815 2.939C27.7634 3.03281 27.745 3.11029 27.7266 3.17097C27.7075 3.23245 27.6877 3.28784 27.6686 3.33827C27.7151 3.38165 27.753 3.41351 27.7842 3.43432C27.8873 3.50781 27.9816 3.55247 28.0685 3.56864C28.1697 3.58833 28.276 3.58945 28.3866 3.57377C28.4973 3.5576 28.6015 3.5275 28.7011 3.48347L28.6327 3.83312Z" fill="#231F20"/>
<path d="M28.6327 3.83312C28.6201 3.83424 28.5511 3.83008 28.4256 3.82031C28.2999 3.8099 28.2033 3.79726 28.135 3.78509C28.048 3.76892 27.9371 3.70456 27.8017 3.59522C27.7564 3.56 27.6952 3.50445 27.6171 3.42792C27.5945 3.46154 27.5759 3.4886 27.5596 3.50957C27.5133 3.56976 27.4611 3.61491 27.403 3.64741C27.3444 3.67815 27.2764 3.70632 27.1973 3.73482C27.1858 3.73642 27.1696 3.74122 27.1483 3.74811C27.1789 3.83488 27.2042 3.90388 27.2263 3.95415C27.2948 4.12369 27.3529 4.25624 27.403 4.35102C27.4541 4.44483 27.5164 4.55066 27.5892 4.66944C27.6299 4.72964 27.6702 4.7916 27.7127 4.85339L27.5558 4.90446C27.5489 4.90334 27.4909 4.79512 27.3854 4.57979C27.2468 4.30427 27.143 4.07326 27.0748 3.88883C26.9695 3.60867 26.9288 3.40887 26.9509 3.29088C26.9653 3.21676 27.0026 3.18618 27.0627 3.19707L27.3765 3.25726L27.5298 2.47376L26.934 2.36026L26.9813 2.1206L28.5818 2.4251L28.5344 2.66411L27.8158 2.52868C27.8121 2.56166 27.8098 2.58951 27.8094 2.61256C27.8013 2.77922 27.7925 2.88857 27.7815 2.939C27.7634 3.03281 27.745 3.11029 27.7266 3.17097C27.7075 3.23245 27.6877 3.28784 27.6686 3.33827C27.7151 3.38165 27.753 3.41351 27.7842 3.43432C27.8873 3.50781 27.9816 3.55247 28.0685 3.56864C28.1697 3.58833 28.276 3.58945 28.3866 3.57377C28.4973 3.5576 28.6015 3.5275 28.7011 3.48347L28.6327 3.83312Z" stroke="#231F20" stroke-width="0.1019"/>
<path d="M29.5689 2.86087L29.1063 2.77282L28.6341 5.18495L28.378 4.91983L28.8088 2.71615L28.4985 2.65771L28.5448 2.41869L29.6166 2.62121L29.5689 2.86087Z" fill="#231F20"/>
<path d="M29.5689 2.86087L29.1063 2.77282L28.6341 5.18495L28.378 4.91983L28.8088 2.71615L28.4985 2.65771L28.5448 2.41869L29.6166 2.62121L29.5689 2.86087Z" stroke="#231F20" stroke-width="0.1019"/>
<path d="M23.723 2.27172L22.3196 2.34232L22.3655 3.21739C22.3891 3.17337 22.4388 3.11894 22.5118 3.05298C22.6225 2.95932 22.7301 2.91066 22.8336 2.90489C22.9835 2.89689 23.1271 2.97325 23.267 3.13399C23.4058 3.29376 23.4811 3.47082 23.4905 3.66998C23.5011 3.86145 23.4442 4.07325 23.321 4.30315C23.2251 4.47973 23.1509 4.58315 23.0991 4.61789L22.8343 4.44195C22.9345 4.34589 23.0096 4.26136 23.0565 4.19076C23.203 3.97544 23.2707 3.74682 23.258 3.50796C23.2516 3.39462 23.2289 3.31121 23.1921 3.2579C23.1549 3.20459 23.0819 3.18025 22.9732 3.18618C22.846 3.19194 22.7105 3.26943 22.5663 3.41415C22.4456 3.5403 22.3863 3.62131 22.3876 3.65957L22.4484 4.79624L22.1335 4.5982L22.0948 3.87378C22.0421 3.95831 21.9954 4.02074 21.956 4.06125C21.8332 4.19092 21.7032 4.2604 21.5654 4.26729C21.4045 4.27481 21.2534 4.1938 21.1109 4.02314C20.9685 3.85184 20.8917 3.6695 20.8818 3.47627C20.8678 3.20763 20.9604 3.01328 21.1607 2.89241C21.2868 2.81812 21.4432 2.77586 21.6294 2.76609C21.6491 2.76497 21.6637 2.76497 21.6757 2.76257C21.6867 2.76257 21.6984 2.76257 21.7106 2.76257L21.8516 3.07859C21.8443 3.06931 21.798 3.06819 21.7141 3.07171C21.5479 3.081 21.4085 3.11622 21.2975 3.17993C21.1354 3.27199 21.0585 3.40791 21.0681 3.58609C21.074 3.71577 21.107 3.81758 21.1658 3.89283C21.2255 3.96807 21.3041 4.00393 21.4037 3.99817C21.5623 3.98953 21.7223 3.89347 21.8806 3.71064C22.0098 3.56256 22.0738 3.46522 22.0716 3.42007L22.016 2.35753L20.6813 2.42653L20.6676 2.18223L23.7105 2.02838L23.723 2.27172Z" fill="#231F20"/>
<path d="M23.723 2.27172L22.3196 2.34232L22.3655 3.21739C22.3891 3.17337 22.4388 3.11894 22.5118 3.05298C22.6225 2.95932 22.7301 2.91066 22.8336 2.90489C22.9835 2.89689 23.1271 2.97325 23.267 3.13399C23.4058 3.29376 23.4811 3.47082 23.4905 3.66998C23.5011 3.86145 23.4442 4.07325 23.321 4.30315C23.2251 4.47973 23.1509 4.58315 23.0991 4.61789L22.8343 4.44195C22.9345 4.34589 23.0096 4.26136 23.0565 4.19076C23.203 3.97544 23.2707 3.74682 23.258 3.50796C23.2516 3.39462 23.2289 3.31121 23.1921 3.2579C23.1549 3.20459 23.0819 3.18025 22.9732 3.18618C22.846 3.19194 22.7105 3.26943 22.5663 3.41415C22.4456 3.5403 22.3863 3.62131 22.3876 3.65957L22.4484 4.79624L22.1335 4.5982L22.0948 3.87378C22.0421 3.95831 21.9954 4.02074 21.956 4.06125C21.8332 4.19092 21.7032 4.2604 21.5654 4.26729C21.4045 4.27481 21.2534 4.1938 21.1109 4.02314C20.9685 3.85184 20.8917 3.6695 20.8818 3.47627C20.8678 3.20763 20.9604 3.01328 21.1607 2.89241C21.2868 2.81812 21.4432 2.77586 21.6294 2.76609C21.6491 2.76497 21.6637 2.76497 21.6757 2.76257C21.6867 2.76257 21.6984 2.76257 21.7106 2.76257L21.8516 3.07859C21.8443 3.06931 21.798 3.06819 21.7141 3.07171C21.5479 3.081 21.4085 3.11622 21.2975 3.17993C21.1354 3.27199 21.0585 3.40791 21.0681 3.58609C21.074 3.71577 21.107 3.81758 21.1658 3.89283C21.2255 3.96807 21.3041 4.00393 21.4037 3.99817C21.5623 3.98953 21.7223 3.89347 21.8806 3.71064C22.0098 3.56256 22.0738 3.46522 22.0716 3.42007L22.016 2.35753L20.6813 2.42653L20.6676 2.18223L23.7105 2.02838L23.723 2.27172Z" stroke="#231F20" stroke-width="0.1019"/>
<path d="M22.5956 2.16286C22.6275 2.14669 22.6521 2.15246 22.6684 2.18143C22.6817 2.21265 22.6739 2.23698 22.6433 2.24947C22.6119 2.2658 22.5876 2.25892 22.5703 2.23106C22.5575 2.19776 22.5657 2.17439 22.5956 2.16286Z" fill="#231F20"/>
<path d="M22.5956 2.16286C22.6275 2.14669 22.6521 2.15246 22.6684 2.18143C22.6817 2.21265 22.6739 2.23698 22.6433 2.24947C22.6119 2.2658 22.5876 2.25892 22.5703 2.23106C22.5575 2.19776 22.5657 2.17439 22.5956 2.16286Z" stroke="#231F20" stroke-width="0.1019"/>
<path d="M24.8305 2.21553L24.3027 2.24275L24.4307 4.6965L24.1171 4.49862L24.0006 2.2578L23.6858 2.27413L23.673 2.02918L24.1338 2.00725C24.034 1.79897 23.9463 1.64496 23.8722 1.54266C23.6448 1.23592 23.3928 1.09008 23.1164 1.104C22.9861 1.10961 22.8906 1.1642 22.8304 1.26602C22.7847 1.3435 22.7662 1.44532 22.7725 1.57516C22.7784 1.68963 22.8258 1.80649 22.9137 1.92352C22.9427 1.95938 22.9867 2.00469 23.0446 2.05784L22.9289 2.0636C22.8943 2.05432 22.8335 1.98724 22.7465 1.86333C22.6303 1.70019 22.5679 1.53578 22.5583 1.36912C22.5511 1.22215 22.5817 1.10641 22.6511 1.01963C22.7381 0.90981 22.8769 0.850736 23.069 0.84017C23.3685 0.824481 23.6616 1.01259 23.9474 1.40338C24.0428 1.53049 24.1563 1.72901 24.2899 1.99877L24.818 1.97219L24.8305 2.21553Z" fill="#231F20"/>
<path d="M24.8305 2.21553L24.3027 2.24275L24.4307 4.6965L24.1171 4.49862L24.0006 2.2578L23.6858 2.27413L23.673 2.02918L24.1338 2.00725C24.034 1.79897 23.9463 1.64496 23.8722 1.54266C23.6448 1.23592 23.3928 1.09008 23.1164 1.104C22.9861 1.10961 22.8906 1.1642 22.8304 1.26602C22.7847 1.3435 22.7662 1.44532 22.7725 1.57516C22.7784 1.68963 22.8258 1.80649 22.9137 1.92352C22.9427 1.95938 22.9867 2.00469 23.0446 2.05784L22.9289 2.0636C22.8943 2.05432 22.8335 1.98724 22.7465 1.86333C22.6303 1.70019 22.5679 1.53578 22.5583 1.36912C22.5511 1.22215 22.5817 1.10641 22.6511 1.01963C22.7381 0.90981 22.8769 0.850736 23.069 0.84017C23.3685 0.824481 23.6616 1.01259 23.9474 1.40338C24.0428 1.53049 24.1563 1.72901 24.2899 1.99877L24.818 1.97219L24.8305 2.21553Z" stroke="#231F20" stroke-width="0.1019"/>
<path d="M19.0854 2.36778L18.9776 2.48241C18.8886 2.42445 18.7994 2.36538 18.7125 2.30646C18.4973 2.18031 18.2801 2.08425 18.0609 2.02054C17.7553 1.93153 17.4844 1.9176 17.246 1.97779C17.0643 2.02342 16.9387 2.10443 16.8693 2.21841C16.8 2.33304 16.7855 2.46736 16.8248 2.62009C16.8549 2.73279 16.9084 2.82949 16.9851 2.91178C17.0069 2.93771 17.0426 2.96669 17.0911 3.00079L17.7186 2.84166L17.7809 3.07827L17.2694 3.20795L17.8911 5.5863L17.5432 5.45438L16.9753 3.28191L16.671 3.3594L16.6084 3.12374L16.9985 3.02432C16.9203 2.98206 16.8597 2.94268 16.818 2.90569C16.6894 2.79795 16.6062 2.67068 16.5682 2.52483C16.52 2.33736 16.5357 2.17647 16.6143 2.03863C16.6931 1.90207 16.8301 1.80825 17.023 1.75975C17.2806 1.69427 17.5866 1.71332 17.9431 1.81818C18.1916 1.89054 18.4594 2.00517 18.7463 2.16254C18.859 2.22994 18.9719 2.29942 19.0854 2.36778Z" fill="#231F20"/>
<path d="M19.0854 2.36778L18.9776 2.48241C18.8886 2.42445 18.7994 2.36538 18.7125 2.30646C18.4973 2.18031 18.2801 2.08425 18.0609 2.02054C17.7553 1.93153 17.4844 1.9176 17.246 1.97779C17.0643 2.02342 16.9387 2.10443 16.8693 2.21841C16.8 2.33304 16.7855 2.46736 16.8248 2.62009C16.8549 2.73279 16.9084 2.82949 16.9851 2.91178C17.0069 2.93771 17.0426 2.96669 17.0911 3.00079L17.7186 2.84166L17.7809 3.07827L17.2694 3.20795L17.8911 5.5863L17.5432 5.45438L16.9753 3.28191L16.671 3.3594L16.6084 3.12374L16.9985 3.02432C16.9203 2.98206 16.8597 2.94268 16.818 2.90569C16.6894 2.79795 16.6062 2.67068 16.5682 2.52483C16.52 2.33736 16.5357 2.17647 16.6143 2.03863C16.6931 1.90207 16.8301 1.80825 17.023 1.75975C17.2806 1.69427 17.5866 1.71332 17.9431 1.81818C18.1916 1.89054 18.4594 2.00517 18.7463 2.16254C18.859 2.22994 18.9719 2.29942 19.0854 2.36778Z" stroke="#231F20" stroke-width="0.1019"/>
<path d="M19.1211 2.73695L18.598 2.87015L18.9714 4.29594C18.9819 4.33981 18.9586 4.36895 18.8997 4.38383C18.859 4.39312 18.7388 4.34909 18.5394 4.24503C18.3398 4.14209 18.2346 4.06797 18.222 4.02523C18.2197 4.01482 18.222 3.99737 18.2313 3.97656C18.2393 3.95462 18.2534 3.9407 18.2724 3.93733L18.5462 3.86785L18.3041 2.94428L17.6837 3.10293L17.6226 2.86567L19.0589 2.50098L19.1211 2.73695Z" fill="#231F20"/>
<path d="M19.1211 2.73695L18.598 2.87015L18.9714 4.29594C18.9819 4.33981 18.9586 4.36895 18.8997 4.38383C18.859 4.39312 18.7388 4.34909 18.5394 4.24503C18.3398 4.14209 18.2346 4.06797 18.222 4.02523C18.2197 4.01482 18.222 3.99737 18.2313 3.97656C18.2393 3.95462 18.2534 3.9407 18.2724 3.93733L18.5462 3.86785L18.3041 2.94428L17.6837 3.10293L17.6226 2.86567L19.0589 2.50098L19.1211 2.73695Z" stroke="#231F20" stroke-width="0.1019"/>
<path d="M20.1221 2.48289L19.6639 2.59864L20.2861 4.97938L19.9375 4.84635L19.37 2.67324L19.0663 2.752L19.004 2.51475L20.061 2.24675L20.1221 2.48289Z" fill="#231F20"/>
<path d="M20.1221 2.48289L19.6639 2.59864L20.2861 4.97938L19.9375 4.84635L19.37 2.67324L19.0663 2.752L19.004 2.51475L20.061 2.24675L20.1221 2.48289Z" stroke="#231F20" stroke-width="0.1019"/>
<path d="M15.0709 5.6617L14.4116 4.36895L13.8393 4.65199L14.0916 5.1478L13.4978 5.44125C13.4469 5.46719 13.4123 5.49345 13.3966 5.52098C13.3798 5.54756 13.3867 5.59174 13.4168 5.65178C13.4547 5.72478 13.514 5.77329 13.5938 5.7965C13.6193 5.80451 13.658 5.80819 13.7094 5.80819C13.7206 5.79778 13.7302 5.7901 13.7374 5.78722C13.7906 5.74895 13.863 5.70621 13.9555 5.66106L14.1945 5.561L14.4734 5.74143C14.4191 5.73471 14.3335 5.75888 14.2213 5.81491C14.1932 5.82772 14.1732 5.84149 14.1622 5.85318C13.9955 5.97132 13.9011 6.04128 13.8833 6.06258C13.7994 6.15063 13.79 6.25821 13.8548 6.38677C13.947 6.56735 14.1326 6.5904 14.4105 6.45272C14.5645 6.37588 14.7201 6.22411 14.8762 5.99966C15.0094 5.80643 15.0742 5.6942 15.0709 5.6617ZM15.1038 4.02395L14.6818 4.23351L15.8011 6.42903L15.4343 6.37348L15.223 5.96156C15.1977 6.03792 15.113 6.15479 14.97 6.31569C14.8549 6.44424 14.746 6.53453 14.6431 6.58416C14.4734 6.66869 14.2699 6.6855 14.0291 6.63683C13.789 6.58704 13.6369 6.50091 13.573 6.3754C13.5047 6.24108 13.5036 6.11365 13.5695 5.99214C13.5823 5.97309 13.5996 5.94987 13.6239 5.92041C13.5348 5.90537 13.4666 5.8892 13.4203 5.87351C13.2746 5.82196 13.1811 5.75488 13.1401 5.67387C13.0995 5.59398 13.0876 5.52098 13.1044 5.4539C13.1217 5.38554 13.1622 5.33591 13.2277 5.30229L13.7703 5.03382L13.6286 4.75718L12.7247 5.20512L12.6134 4.98627L14.9924 3.80622L15.1038 4.02395Z" fill="#231F20"/>
<path d="M15.0709 5.6617L14.4116 4.36895L13.8393 4.65199L14.0916 5.1478L13.4978 5.44125C13.4469 5.46719 13.4123 5.49345 13.3966 5.52098C13.3798 5.54756 13.3867 5.59174 13.4168 5.65178C13.4547 5.72478 13.514 5.77329 13.5938 5.7965C13.6193 5.80451 13.658 5.80819 13.7094 5.80819C13.7206 5.79778 13.7302 5.7901 13.7374 5.78722C13.7906 5.74895 13.863 5.70621 13.9555 5.66106L14.1945 5.561L14.4734 5.74143C14.4191 5.73471 14.3335 5.75888 14.2213 5.81491C14.1932 5.82772 14.1732 5.84149 14.1622 5.85318C13.9955 5.97132 13.9011 6.04128 13.8833 6.06258C13.7994 6.15063 13.79 6.25821 13.8548 6.38677C13.947 6.56735 14.1326 6.59041 14.4105 6.45272C14.5645 6.37588 14.7201 6.22411 14.8762 5.99966C15.0094 5.80643 15.0742 5.6942 15.0709 5.6617ZM15.1038 4.02395L14.6818 4.23351L15.8011 6.42903L15.4343 6.37348L15.223 5.96156C15.1977 6.03792 15.113 6.15479 14.97 6.31568C14.8549 6.44424 14.746 6.53453 14.6431 6.58416C14.4734 6.66869 14.2699 6.6855 14.0291 6.63683C13.789 6.58704 13.6369 6.50091 13.573 6.3754C13.5047 6.24108 13.5036 6.11365 13.5695 5.99214C13.5823 5.97309 13.5996 5.94987 13.6239 5.92041C13.5348 5.90537 13.4666 5.8892 13.4203 5.87351C13.2746 5.82196 13.1811 5.75488 13.1401 5.67387C13.0995 5.59398 13.0876 5.52098 13.1044 5.4539C13.1217 5.38554 13.1622 5.33591 13.2277 5.30229L13.7703 5.03382L13.6286 4.75718L12.7247 5.20512L12.6134 4.98627L14.9924 3.80622L15.1038 4.02395Z" stroke="#231F20" stroke-width="0.1019"/>
<path d="M16.0361 3.56224L15.6149 3.77052L16.7352 5.9662L16.366 5.90937L15.3433 3.90596L15.0633 4.04476L14.951 3.82719L15.9254 3.34451L16.0361 3.56224Z" fill="#231F20"/>
<path d="M16.0361 3.56224L15.6149 3.77052L16.7352 5.9662L16.366 5.90937L15.3433 3.90596L15.0633 4.04476L14.951 3.82719L15.9254 3.34451L16.0361 3.56224Z" stroke="#231F20" stroke-width="0.1019"/>
<path d="M15.4578 3.57601L15.3562 3.62692C15.3214 3.59218 15.2891 3.56208 15.2582 3.5355C15.0773 3.38165 14.8467 3.22428 14.5653 3.06227C14.5121 3.03201 14.4422 3.04081 14.357 3.08244C14.3282 3.10101 14.305 3.11478 14.2875 3.12358L14.1452 3.23517L13.8907 3.01424L14.1474 2.88568C14.2017 2.85911 14.2667 2.8439 14.3396 2.83942C14.4124 2.83477 14.4865 2.85735 14.5618 2.90473C14.7619 3.03329 14.9761 3.18826 15.2052 3.36885C15.2729 3.42568 15.3571 3.49388 15.4578 3.57601Z" fill="#231F20"/>
<path d="M15.4578 3.57601L15.3562 3.62692C15.3214 3.59218 15.2891 3.56208 15.2582 3.5355C15.0773 3.38165 14.8467 3.22428 14.5653 3.06227C14.5121 3.03201 14.4422 3.04081 14.357 3.08244C14.3282 3.10101 14.305 3.11478 14.2875 3.12358L14.1452 3.23517L13.8907 3.01424L14.1474 2.88568C14.2017 2.85911 14.2667 2.8439 14.3396 2.83942C14.4124 2.83477 14.4865 2.85735 14.5618 2.90473C14.7619 3.03329 14.9761 3.18826 15.2052 3.36885C15.2729 3.42568 15.3571 3.49388 15.4578 3.57601Z" stroke="#231F20" stroke-width="0.1019"/>
<path d="M11.6268 7.7045L11.2438 9.09683L10.9153 9.05873L11.2496 8.05638L10.3768 8.11145L9.76411 7.32139L9.56719 7.46916L9.41702 7.27641L10.3681 6.55871L10.5181 6.75194L10.0049 7.13969L10.6584 7.98226L11.2816 7.95456L11.455 7.48469L11.6268 7.7045Z" fill="#231F20"/>
<path d="M11.6268 7.7045L11.2438 9.09683L10.9153 9.05873L11.2496 8.05638L10.3768 8.11145L9.76411 7.32139L9.56719 7.46916L9.41702 7.27641L10.3681 6.55871L10.5181 6.75194L10.0049 7.13969L10.6584 7.98226L11.2816 7.95456L11.455 7.48469L11.6268 7.7045Z" stroke="#231F20" stroke-width="0.1019"/>
<path d="M11.3521 6.12357L10.977 6.40597L12.4914 8.35783L12.1189 8.37L10.7363 6.58832L10.4863 6.77739L10.3358 6.58288L11.2027 5.93034L11.3521 6.12357Z" fill="#231F20"/>
<path d="M11.3521 6.12357L10.977 6.40597L12.4914 8.35783L12.1189 8.37L10.7363 6.58832L10.4863 6.77739L10.3358 6.58288L11.2027 5.93034L11.3521 6.12357Z" stroke="#231F20" stroke-width="0.1019"/>
<path d="M12.1709 5.50657L11.7953 5.79026L13.3087 7.74148L12.937 7.75364L11.5547 5.97068L11.3045 6.15943L11.1542 5.9662L12.0204 5.31334L12.1709 5.50657Z" fill="#231F20"/>
<path d="M12.1709 5.50657L11.7953 5.79026L13.3087 7.74148L12.937 7.75364L11.5547 5.97068L11.3045 6.15943L11.1542 5.9662L12.0204 5.31334L12.1709 5.50657Z" stroke="#231F20" stroke-width="0.1019"/>
<path d="M11.6389 5.60151L11.5472 5.66987C11.4222 5.60151 11.322 5.54836 11.248 5.50897C11.0282 5.39323 10.8289 5.29141 10.6513 5.2064C10.5919 5.17918 10.5345 5.17278 10.4786 5.18382C10.423 5.19471 10.3742 5.22145 10.3315 5.26131L10.1701 5.42444L9.83261 5.26131L10.1613 5.01252C10.1981 4.98531 10.2423 4.96626 10.2919 4.95697C10.343 4.94833 10.388 4.95009 10.4275 4.96161C10.542 5.00452 10.7794 5.12475 11.1382 5.32038C11.256 5.38506 11.422 5.47759 11.6389 5.60151ZM11.3284 5.8354L11.2408 5.90136C11.1423 5.8551 11.0684 5.82148 11.0186 5.80066C10.8641 5.73935 10.7656 5.71165 10.7224 5.71726C10.6795 5.72366 10.6361 5.74383 10.5932 5.77521C10.5453 5.81219 10.5082 5.84917 10.4839 5.88631C10.4776 5.88984 10.4728 5.9036 10.4701 5.92458L10.1853 5.76128L10.3499 5.63737C10.3856 5.61079 10.4421 5.58646 10.5175 5.56517C10.5929 5.54371 10.7501 5.58134 10.9896 5.67915C11.0674 5.71149 11.1803 5.7624 11.3284 5.8354Z" fill="#231F20"/>
<path d="M11.6389 5.60151L11.5472 5.66987C11.4222 5.60151 11.322 5.54836 11.248 5.50897C11.0282 5.39323 10.8289 5.29141 10.6513 5.2064C10.5919 5.17918 10.5345 5.17278 10.4786 5.18382C10.423 5.19471 10.3742 5.22145 10.3315 5.26131L10.1701 5.42444L9.83261 5.26131L10.1613 5.01252C10.1981 4.98531 10.2423 4.96626 10.2919 4.95697C10.343 4.94833 10.388 4.95009 10.4275 4.96161C10.542 5.00452 10.7794 5.12475 11.1382 5.32038C11.256 5.38506 11.422 5.47759 11.6389 5.60151ZM11.3284 5.8354L11.2408 5.90136C11.1423 5.8551 11.0684 5.82148 11.0186 5.80066C10.8641 5.73935 10.7656 5.71165 10.7224 5.71726C10.6795 5.72366 10.6361 5.74383 10.5932 5.77521C10.5453 5.81219 10.5082 5.84917 10.4839 5.88631C10.4776 5.88984 10.4728 5.9036 10.4701 5.92458L10.1853 5.76128L10.3499 5.63737C10.3856 5.61079 10.4421 5.58646 10.5175 5.56517C10.5929 5.54371 10.7501 5.58134 10.9896 5.67915C11.0674 5.71149 11.1803 5.7624 11.3284 5.8354Z" stroke="#231F20" stroke-width="0.1019"/>
<path d="M8.96715 10.266C8.96891 10.3574 8.96362 10.4291 8.95146 10.4836C8.92088 10.6526 8.85588 10.7927 8.75886 10.9049C8.5541 11.1398 8.26482 11.2139 7.89308 11.1271C7.77157 11.0982 7.60363 11.0335 7.39359 10.9293C7.4858 10.8529 7.54648 10.744 7.57465 10.6028C7.60363 10.4639 7.57689 10.3585 7.49253 10.2868C7.36861 10.1821 7.25703 10.1195 7.15761 10.1011C7.12623 10.0947 7.08733 10.0964 7.03994 10.1062L6.65796 10.5431L6.47049 10.3845L7.41152 9.30415L7.60011 9.46376L7.0995 10.0374C7.16273 10.0119 7.27032 10.0148 7.42192 10.0471C7.54007 10.0726 7.63949 10.1177 7.71586 10.1837C7.83977 10.289 7.89868 10.4198 7.89244 10.577C7.88604 10.7335 7.83224 10.8689 7.73219 10.9834C7.78646 11.0088 7.8292 11.0261 7.8633 11.0354C8.08855 11.0805 8.29732 10.9915 8.49247 10.768C8.57684 10.6709 8.63479 10.5169 8.66377 10.3086C8.67177 10.2402 8.6777 10.1454 8.68122 10.0238L8.96715 10.266Z" fill="#231F20"/>
<path d="M8.96715 10.266C8.96891 10.3574 8.96362 10.4291 8.95146 10.4836C8.92088 10.6526 8.85588 10.7927 8.75886 10.9049C8.5541 11.1398 8.26482 11.2139 7.89308 11.1271C7.77157 11.0982 7.60363 11.0335 7.39359 10.9293C7.4858 10.8529 7.54648 10.744 7.57465 10.6028C7.60363 10.4639 7.57689 10.3585 7.49253 10.2868C7.36861 10.1821 7.25703 10.1195 7.15761 10.1011C7.12623 10.0947 7.08733 10.0964 7.03994 10.1062L6.65796 10.5431L6.47049 10.3845L7.41152 9.30415L7.60011 9.46376L7.0995 10.0374C7.16273 10.0119 7.27032 10.0148 7.42192 10.0471C7.54007 10.0726 7.63949 10.1177 7.71586 10.1837C7.83977 10.289 7.89868 10.4198 7.89244 10.577C7.88604 10.7335 7.83224 10.8689 7.73219 10.9834C7.78646 11.0088 7.8292 11.0261 7.8633 11.0354C8.08855 11.0805 8.29732 10.9915 8.49247 10.768C8.57684 10.6709 8.63479 10.5169 8.66377 10.3086C8.67177 10.2402 8.6777 10.1454 8.68122 10.0238L8.96715 10.266Z" stroke="#231F20" stroke-width="0.1019"/>
<path d="M8.27395 8.69179L7.96609 9.04479L9.85503 10.6467L9.49274 10.7346L7.76741 9.27165L7.56233 9.5065L7.37454 9.34801L8.08648 8.53329L8.27395 8.69179Z" fill="#231F20"/>
<path d="M8.27395 8.69179L7.96609 9.04479L9.85503 10.6467L9.49274 10.7346L7.76741 9.27165L7.56233 9.5065L7.37454 9.34801L8.08648 8.53329L8.27395 8.69179Z" stroke="#231F20" stroke-width="0.1019"/>
<path d="M6.06032 12.8597L5.54354 13.671C5.49663 13.7458 5.48671 13.8359 5.5152 13.9459C5.5429 14.0548 5.6135 14.1426 5.72348 14.211C5.91912 14.3314 6.17591 14.3869 6.49657 14.3748C6.76393 14.3673 6.9157 14.3429 6.95156 14.3013L6.95268 14.4372C6.70742 14.483 6.51178 14.5102 6.37042 14.5205C5.93545 14.5478 5.6079 14.4932 5.38681 14.3573C5.27106 14.2845 5.19229 14.1849 5.15531 14.06C5.11785 13.9328 5.1345 13.8135 5.20686 13.7013L5.83187 12.718L6.06032 12.8597ZM5.14699 12.7521L4.39823 13.928L4.18979 13.7984L4.93839 12.6226L5.14699 12.7521Z" fill="#231F20"/>
<path d="M6.06032 12.8597L5.54354 13.671C5.49663 13.7458 5.48671 13.8359 5.5152 13.9459C5.5429 14.0548 5.6135 14.1426 5.72348 14.211C5.91912 14.3314 6.17591 14.3869 6.49657 14.3748C6.76393 14.3673 6.9157 14.3429 6.95156 14.3013L6.95268 14.4372C6.70742 14.483 6.51178 14.5102 6.37042 14.5205C5.93545 14.5478 5.6079 14.4932 5.38681 14.3573C5.27106 14.2845 5.19229 14.1849 5.15531 14.06C5.11785 13.9328 5.1345 13.8135 5.20686 13.7013L5.83187 12.718L6.06032 12.8597ZM5.14699 12.7521L4.39823 13.928L4.18979 13.7984L4.93839 12.6226L5.14699 12.7521Z" stroke="#231F20" stroke-width="0.1019"/>
<path d="M5.70604 11.8736L5.45501 12.2676L7.56488 13.5738L7.22052 13.7144L5.29348 12.5217L5.12634 12.7844L4.91742 12.6559L5.49664 11.7445L5.70604 11.8736Z" fill="#231F20"/>
<path d="M5.70604 11.8736L5.45501 12.2676L7.56488 13.5738L7.22052 13.7144L5.29348 12.5217L5.12634 12.7844L4.91742 12.6559L5.49664 11.7445L5.70604 11.8736Z" stroke="#231F20" stroke-width="0.1019"/>
<path d="M6.28334 10.9662L6.0027 11.4078L8.11385 12.7127L7.76821 12.8528L5.84052 11.6612L5.67387 11.9241L5.46446 11.7944L5.70989 11.4095C5.48063 11.3708 5.30229 11.3527 5.1739 11.354C4.78919 11.362 4.52296 11.4813 4.37663 11.7128C4.30587 11.8216 4.29674 11.9292 4.34637 12.0369C4.38399 12.1179 4.4586 12.1932 4.56874 12.2603C4.66816 12.3227 4.79191 12.3517 4.93888 12.3472C4.98627 12.3437 5.04902 12.3344 5.12651 12.3182L5.06535 12.4143C5.0375 12.4373 4.9472 12.449 4.79431 12.449C4.59067 12.4477 4.41937 12.4028 4.27593 12.3147C4.14978 12.2371 4.07101 12.1458 4.03851 12.0403C3.99689 11.9073 4.02747 11.7614 4.12993 11.6004C4.28906 11.3492 4.61309 11.2197 5.10185 11.2137C5.26259 11.2102 5.49296 11.2323 5.79266 11.2779L6.07394 10.8364L6.28334 10.9662Z" fill="#231F20"/>
<path d="M6.28334 10.9662L6.0027 11.4078L8.11385 12.7127L7.76821 12.8528L5.84052 11.6612L5.67387 11.9241L5.46446 11.7944L5.70989 11.4095C5.48063 11.3708 5.30229 11.3527 5.1739 11.354C4.78919 11.362 4.52296 11.4813 4.37663 11.7128C4.30587 11.8216 4.29674 11.9292 4.34637 12.0369C4.38399 12.1179 4.4586 12.1932 4.56874 12.2603C4.66816 12.3227 4.79191 12.3517 4.93888 12.3472C4.98627 12.3437 5.04902 12.3344 5.12651 12.3182L5.06535 12.4143C5.0375 12.4373 4.9472 12.449 4.79431 12.449C4.59067 12.4477 4.41937 12.4028 4.27593 12.3147C4.14978 12.2371 4.07101 12.1458 4.03851 12.0403C3.99689 11.9073 4.02747 11.7614 4.12993 11.6004C4.28906 11.3492 4.61309 11.2197 5.10185 11.2137C5.26259 11.2102 5.49296 11.2323 5.79266 11.2779L6.07394 10.8364L6.28334 10.9662Z" stroke="#231F20" stroke-width="0.1019"/>
<path d="M4.18514 14.4267L3.90802 15.0286C3.93108 15.0308 3.98903 15.0448 4.0782 15.0691C4.16833 15.0922 4.26007 15.1259 4.35356 15.1676C4.62444 15.2904 4.80278 15.4511 4.88731 15.6491C4.94623 15.7927 4.95791 15.972 4.91949 16.1896C5.02147 16.1699 5.10152 16.1549 5.16139 16.1433C5.33333 16.1086 5.48494 16.0745 5.61814 16.0433C5.93817 15.9588 6.14549 15.888 6.23786 15.8313L6.29517 15.9812C6.29101 15.9887 6.16214 16.0314 5.90679 16.1126C5.5922 16.2122 5.32469 16.2821 5.10552 16.3215C4.78085 16.3793 4.55048 16.3782 4.41504 16.3156C4.31034 16.2682 4.28072 16.1963 4.32715 16.0969L4.54247 15.6304L3.78651 15.2902L3.36627 16.1976L3.14182 16.0956L3.96069 14.326L4.18514 14.4267Z" fill="#231F20"/>
<path d="M4.18514 14.4267L3.90802 15.0286C3.93108 15.0308 3.98903 15.0448 4.0782 15.0691C4.16833 15.0922 4.26007 15.1259 4.35356 15.1676C4.62444 15.2904 4.80278 15.4511 4.88731 15.6491C4.94623 15.7927 4.95791 15.972 4.91949 16.1896C5.02147 16.1699 5.10152 16.1549 5.16139 16.1433C5.33333 16.1086 5.48494 16.0745 5.61814 16.0433C5.93817 15.9588 6.14549 15.888 6.23786 15.8313L6.29517 15.9812C6.29101 15.9887 6.16214 16.0314 5.90679 16.1126C5.5922 16.2122 5.32469 16.2821 5.10552 16.3215C4.78085 16.3793 4.55048 16.3782 4.41504 16.3156C4.31034 16.2682 4.28072 16.1963 4.32715 16.0969L4.54247 15.6304L3.78651 15.2902L3.36627 16.1976L3.14182 16.0956L3.96069 14.326L4.18514 14.4267Z" stroke="#231F20" stroke-width="0.1019"/>
<path d="M2.6252 18.6824L2.54419 18.973L2.27891 19.0013L2.38666 18.6189L2.6252 18.6824ZM2.82884 19.7046L2.32422 19.5674C2.26883 19.5522 2.22288 19.554 2.1875 19.5737C2.15292 19.5933 2.12394 19.6409 2.10313 19.716C2.0836 19.789 2.09961 19.8548 2.15244 19.9134C2.20559 19.9718 2.27331 20.0123 2.35432 20.0342C2.50128 20.0741 2.62584 20.0331 2.72349 19.9086C2.75487 19.8671 2.79009 19.7983 2.82884 19.7046ZM3.92387 18.7487L3.66981 19.6566L4.05275 19.7602C4.08653 19.7707 4.09806 19.7938 4.08685 19.8343C4.07436 19.8817 3.96198 19.9569 3.75466 20.06C3.54765 20.1641 3.4111 20.207 3.3485 20.1902C3.29647 20.1758 3.27582 20.1489 3.2867 20.1085L3.36035 19.8485L2.92089 19.7294C2.92617 19.7694 2.89704 19.8445 2.83524 19.9528C2.66922 20.234 2.45294 20.3376 2.1867 20.2646C1.95296 20.2022 1.87948 20.017 1.96449 19.7113C1.99347 19.6095 2.06407 19.5187 2.17694 19.4389C2.30821 19.3497 2.43324 19.3202 2.55139 19.3526L3.43207 19.5921L3.68566 18.6835L3.92387 18.7487Z" fill="#231F20"/>
<path d="M2.6252 18.6824L2.54419 18.973L2.27891 19.0013L2.38666 18.6189L2.6252 18.6824ZM2.82884 19.7046L2.32422 19.5674C2.26883 19.5522 2.22288 19.554 2.1875 19.5737C2.15292 19.5933 2.12394 19.6409 2.10313 19.716C2.0836 19.789 2.09961 19.8548 2.15244 19.9134C2.20559 19.9718 2.27331 20.0123 2.35432 20.0342C2.50128 20.0741 2.62584 20.0331 2.72349 19.9086C2.75487 19.8671 2.79009 19.7983 2.82884 19.7046ZM3.92387 18.7487L3.66981 19.6566L4.05275 19.7602C4.08653 19.7707 4.09806 19.7938 4.08685 19.8343C4.07436 19.8817 3.96198 19.9569 3.75466 20.06C3.54765 20.1641 3.4111 20.207 3.3485 20.1902C3.29647 20.1758 3.27582 20.1489 3.2867 20.1085L3.36035 19.8485L2.92089 19.7294C2.92617 19.7694 2.89704 19.8445 2.83524 19.9528C2.66922 20.234 2.45294 20.3376 2.1867 20.2646C1.95296 20.2022 1.87948 20.017 1.96449 19.7113C1.99347 19.6095 2.06407 19.5187 2.17694 19.4389C2.30821 19.3497 2.43324 19.3202 2.55139 19.3526L3.43207 19.5921L3.68566 18.6835L3.92387 18.7487Z" stroke="#231F20" stroke-width="0.1019"/>
<path d="M2.90056 17.6935L2.77617 18.1426L5.17837 18.7948L4.88908 19.0274L2.69532 18.4314L2.61143 18.7312L2.37289 18.6658L2.66266 17.6298L2.90056 17.6935Z" fill="#231F20"/>
<path d="M2.90056 17.6935L2.77617 18.1426L5.17837 18.7948L4.88908 19.0274L2.69532 18.4314L2.61143 18.7312L2.37289 18.6658L2.66266 17.6298L2.90056 17.6935Z" stroke="#231F20" stroke-width="0.1019"/>
<path d="M3.17434 16.7149L3.04882 17.1641L5.4515 17.815L5.16157 18.0472L2.96781 17.4527L2.88505 17.7513L2.64667 17.6871L2.93596 16.65L3.17434 16.7149Z" fill="#231F20"/>
<path d="M3.17434 16.7149L3.04882 17.1641L5.4515 17.815L5.16157 18.0472L2.96781 17.4527L2.88505 17.7513L2.64667 17.6871L2.93596 16.65L3.17434 16.7149Z" stroke="#231F20" stroke-width="0.1019"/>
<path d="M31.8965 4.89262C31.8855 4.89198 31.8185 4.8718 31.6993 4.83418C31.5787 4.7948 31.4875 4.76134 31.4249 4.73364C31.3434 4.69778 31.2509 4.61213 31.1431 4.47317C31.1089 4.42915 31.0627 4.36095 31.0025 4.26825C30.9736 4.29723 30.9481 4.31932 30.9289 4.33549C30.8693 4.384 30.8082 4.4165 30.7443 4.43443C30.6808 4.45108 30.6068 4.46389 30.5234 4.47317C30.513 4.47157 30.4944 4.47205 30.4733 4.47493C30.4818 4.56571 30.4904 4.63759 30.5002 4.69202C30.5268 4.87293 30.5535 5.01589 30.5802 5.11899C30.6062 5.22097 30.6427 5.33896 30.6878 5.47039C30.711 5.53923 30.7365 5.60759 30.7642 5.6782L30.5998 5.69196C30.5929 5.68844 30.5618 5.57045 30.509 5.33656C30.439 5.03798 30.3916 4.79096 30.3684 4.5942C30.3302 4.29739 30.3366 4.09423 30.3873 3.98473C30.418 3.91525 30.4614 3.89444 30.5165 3.91765L30.8088 4.04732L31.1397 3.31986L30.5865 3.07508L30.6878 2.85303L32.1744 3.51037L32.0737 3.7337L31.406 3.43801C31.3943 3.47035 31.3863 3.49756 31.3805 3.51838C31.3327 3.67927 31.2982 3.78349 31.2765 3.83216C31.2369 3.91765 31.202 3.98841 31.1689 4.04332C31.1362 4.09887 31.105 4.14914 31.0738 4.19317C31.109 4.24584 31.1393 4.2857 31.1652 4.31292C31.2469 4.40737 31.3296 4.47317 31.41 4.50791C31.5043 4.55066 31.6079 4.57627 31.719 4.58556C31.8302 4.59468 31.9388 4.58908 32.0443 4.56939L31.8965 4.89262Z" fill="#231F20"/>
<path d="M31.8965 4.89262C31.8855 4.89198 31.8185 4.8718 31.6993 4.83418C31.5787 4.7948 31.4875 4.76134 31.4249 4.73364C31.3434 4.69778 31.2509 4.61213 31.1431 4.47317C31.1089 4.42915 31.0627 4.36095 31.0025 4.26825C30.9736 4.29723 30.9481 4.31932 30.9289 4.33549C30.8693 4.384 30.8082 4.4165 30.7443 4.43443C30.6808 4.45108 30.6068 4.46389 30.5234 4.47317C30.513 4.47157 30.4944 4.47205 30.4733 4.47493C30.4818 4.56571 30.4904 4.63759 30.5002 4.69202C30.5268 4.87293 30.5535 5.01589 30.5802 5.11899C30.6062 5.22097 30.6427 5.33896 30.6878 5.47039C30.711 5.53923 30.7365 5.60759 30.7642 5.6782L30.5998 5.69196C30.5929 5.68844 30.5618 5.57045 30.509 5.33656C30.439 5.03798 30.3916 4.79096 30.3684 4.5942C30.3302 4.29739 30.3366 4.09423 30.3873 3.98473C30.418 3.91525 30.4614 3.89444 30.5165 3.91765L30.8088 4.04732L31.1397 3.31986L30.5865 3.07508L30.6878 2.85303L32.1744 3.51037L32.0737 3.7337L31.406 3.43801C31.3943 3.47035 31.3863 3.49756 31.3805 3.51838C31.3327 3.67927 31.2982 3.78349 31.2765 3.83216C31.2369 3.91765 31.202 3.98841 31.1689 4.04332C31.1362 4.09887 31.105 4.14914 31.0738 4.19317C31.109 4.24584 31.1393 4.2857 31.1652 4.31292C31.2469 4.40737 31.3296 4.47317 31.41 4.50791C31.5043 4.55066 31.6079 4.57627 31.719 4.58556C31.8302 4.59468 31.9388 4.58908 32.0443 4.56939L31.8965 4.89262Z" stroke="#231F20" stroke-width="0.1019"/>
<path d="M33.4853 4.35854L33.3284 4.28906L33.3401 4.02747L33.5865 4.13617L33.4853 4.35854ZM32.9354 4.35166C32.9748 4.26473 32.9869 4.17684 32.9743 4.08767C32.9604 3.99737 32.9141 3.93606 32.8377 3.90132C32.6557 3.82143 32.5187 3.88627 32.4232 4.09343C32.3803 4.18837 32.389 4.28906 32.4493 4.39665C32.5082 4.50439 32.5862 4.57963 32.684 4.62238C32.7159 4.61645 32.7418 4.60733 32.7604 4.59452C32.8232 4.55178 32.8809 4.47077 32.9354 4.35166ZM33.0743 5.92682C32.972 5.9558 32.8881 5.97421 32.8233 5.98125C32.6137 6.0043 32.4239 5.97773 32.2527 5.90248C31.9691 5.77633 31.8128 5.51938 31.7849 5.13051C31.7757 5.00324 31.7885 4.81801 31.8229 4.57675C31.8816 4.60397 31.9226 4.62014 31.947 4.62654C31.9684 4.63166 32.0174 4.64319 32.0904 4.65952C32.2316 4.68497 32.351 4.69426 32.4471 4.68722C32.478 4.68385 32.5106 4.67793 32.5441 4.66752C32.4308 4.56795 32.3486 4.48582 32.3016 4.4245C32.1535 4.22198 32.1176 4.035 32.1962 3.86306C32.2427 3.76012 32.3235 3.69304 32.4348 3.66294C32.5476 3.63172 32.6805 3.65013 32.8345 3.71737C32.9669 3.77757 33.0561 3.88755 33.1024 4.05084C33.147 4.21286 33.1307 4.37952 33.0543 4.54729C32.9235 4.83546 32.6984 4.99283 32.3797 5.01605C32.2753 5.02309 32.1272 5.00676 31.9361 4.9629C31.9252 5.0692 31.9268 5.15389 31.9414 5.2128C31.9884 5.39867 32.1149 5.53923 32.3264 5.63065C32.4663 5.69308 32.6192 5.71742 32.7834 5.70461C32.9839 5.69068 33.1329 5.64906 33.2314 5.5831L33.0743 5.92682Z" fill="#231F20"/>
<path d="M33.4853 4.35854L33.3284 4.28906L33.3401 4.02747L33.5865 4.13617L33.4853 4.35854ZM32.9354 4.35166C32.9748 4.26473 32.9869 4.17684 32.9743 4.08767C32.9604 3.99737 32.9141 3.93606 32.8377 3.90132C32.6557 3.82143 32.5187 3.88627 32.4232 4.09343C32.3803 4.18837 32.389 4.28906 32.4493 4.39665C32.5082 4.50439 32.5862 4.57963 32.684 4.62238C32.7159 4.61645 32.7418 4.60733 32.7604 4.59452C32.8232 4.55178 32.8809 4.47077 32.9354 4.35166ZM33.0743 5.92682C32.972 5.9558 32.8881 5.97421 32.8233 5.98125C32.6137 6.0043 32.4239 5.97773 32.2527 5.90248C31.9691 5.77633 31.8128 5.51938 31.7849 5.13051C31.7757 5.00324 31.7885 4.81801 31.8229 4.57675C31.8816 4.60397 31.9226 4.62014 31.947 4.62654C31.9684 4.63166 32.0174 4.64319 32.0904 4.65952C32.2316 4.68497 32.351 4.69426 32.4471 4.68722C32.478 4.68385 32.5106 4.67793 32.5441 4.66752C32.4308 4.56795 32.3486 4.48582 32.3016 4.4245C32.1535 4.22198 32.1176 4.035 32.1962 3.86306C32.2427 3.76012 32.3235 3.69304 32.4348 3.66294C32.5476 3.63172 32.6805 3.65013 32.8345 3.71737C32.9669 3.77757 33.0561 3.88755 33.1024 4.05084C33.147 4.21286 33.1307 4.37952 33.0543 4.54729C32.9235 4.83546 32.6984 4.99283 32.3797 5.01605C32.2753 5.02309 32.1272 5.00676 31.9361 4.9629C31.9252 5.0692 31.9268 5.15389 31.9414 5.2128C31.9884 5.39867 32.1149 5.53923 32.3264 5.63065C32.4663 5.69308 32.6192 5.71742 32.7834 5.70461C32.9839 5.69068 33.1329 5.64906 33.2314 5.5831L33.0743 5.92682Z" stroke="#231F20" stroke-width="0.1019"/>
<path d="M34.4361 4.77927L34.0054 4.58939L32.984 6.8307L32.7966 6.51356L33.7294 4.46612L33.4421 4.33869L33.5424 4.11776L34.5373 4.55818L34.4361 4.77927Z" fill="#231F20"/>
<path d="M34.4361 4.77927L34.0054 4.58939L32.984 6.8307L32.7966 6.51356L33.7294 4.46612L33.4421 4.33869L33.5424 4.11776L34.5373 4.55818L34.4361 4.77927Z" stroke="#231F20" stroke-width="0.1019"/>
<path d="M35.3753 5.19583L34.9445 5.00436L33.9231 7.24566L33.7354 6.92964L34.6679 4.88221L34.3816 4.75493L34.4823 4.53256L35.477 4.97378L35.3753 5.19583Z" fill="#231F20"/>
<path d="M35.3753 5.19583L34.9445 5.00436L33.9231 7.24566L33.7354 6.92964L34.6679 4.88221L34.3816 4.75493L34.4823 4.53256L35.477 4.97378L35.3753 5.19583Z" stroke="#231F20" stroke-width="0.1019"/>
<path d="M36.8913 7.46612L36.1009 6.88738L35.8209 7.26008C35.793 7.29706 35.7617 7.30186 35.7236 7.274C35.6656 7.23158 35.6381 7.09966 35.641 6.87873C35.6426 6.65636 35.675 6.50732 35.7335 6.42791C35.7693 6.38036 35.8142 6.37588 35.8673 6.41286L37.039 7.26936L36.8913 7.46612ZM37.2283 6.45689L36.123 5.64906L36.2706 5.45358L37.3754 6.26029L37.2283 6.45689Z" fill="#231F20"/>
<path d="M36.8913 7.46612L36.1009 6.88738L35.8209 7.26008C35.793 7.29706 35.7617 7.30186 35.7236 7.274C35.6656 7.23158 35.6381 7.09966 35.641 6.87873C35.6426 6.65636 35.675 6.50732 35.7335 6.42791C35.7693 6.38036 35.8142 6.37588 35.8673 6.41286L37.039 7.26936L36.8913 7.46612ZM37.2283 6.45689L36.123 5.64906L36.2706 5.45358L37.3754 6.26029L37.2283 6.45689Z" stroke="#231F20" stroke-width="0.1019"/>
<path d="M38.0702 7.07308L37.6924 6.79596L36.2085 8.77055L36.094 8.41995L37.4482 6.61714L37.1956 6.43255L37.3434 6.23804L38.2176 6.87697L38.0702 7.07308Z" fill="#231F20"/>
<path d="M38.0702 7.07308L37.6924 6.79596L36.2085 8.77055L36.094 8.41995L37.4482 6.61714L37.1956 6.43255L37.3434 6.23804L38.2176 6.87697L38.0702 7.07308Z" stroke="#231F20" stroke-width="0.1019"/>
<path d="M40.4857 9.60032L40.1245 9.20441L39.013 10.1859C38.98 10.2154 38.9416 10.209 38.9001 10.1638C38.8716 10.132 38.8574 10.0065 38.8595 9.78426C38.8612 9.56254 38.878 9.4359 38.9132 9.40628C38.9208 9.39924 38.9369 9.39396 38.9608 9.39172C38.9834 9.38947 39.0024 9.39524 39.0146 9.40901L39.2032 9.61569L39.9244 8.98092L39.496 8.50976L39.6803 8.34663L40.669 9.43814L40.4857 9.60032Z" fill="#231F20"/>
<path d="M40.4857 9.60032L40.1245 9.20441L39.013 10.1859C38.98 10.2154 38.9416 10.209 38.9001 10.1638C38.8716 10.132 38.8574 10.0065 38.8595 9.78426C38.8612 9.56254 38.878 9.4359 38.9132 9.40628C38.9208 9.39924 38.9369 9.39396 38.9608 9.39172C38.9834 9.38947 39.0024 9.39524 39.0146 9.40901L39.2032 9.61569L39.9244 8.98092L39.496 8.50976L39.6803 8.34663L40.669 9.43814L40.4857 9.60032Z" stroke="#231F20" stroke-width="0.1019"/>
<path d="M41.1883 10.3464L40.8734 9.99911L39.1587 11.5141L39.105 11.1593L40.6708 9.77738L40.4615 9.54589L40.6309 9.39556L41.3585 10.1965L41.1883 10.3464Z" fill="#231F20"/>
<path d="M41.1883 10.3464L40.8734 9.99911L39.1587 11.5141L39.105 11.1593L40.6708 9.77738L40.4615 9.54589L40.6309 9.39556L41.3585 10.1965L41.1883 10.3464Z" stroke="#231F20" stroke-width="0.1019"/>
<path d="M39.1785 11.9217C39.0452 12.0414 38.8979 12.068 38.7373 12.0067C38.6089 11.958 38.477 11.858 38.3406 11.707C38.1992 11.5531 38.1054 11.3708 38.0574 11.163C37.9985 10.8945 37.9962 10.7006 38.0539 10.578L38.1695 10.5895C38.1314 10.6648 38.1395 10.8042 38.1968 11.0079C38.2449 11.1792 38.3219 11.322 38.4267 11.4368C38.5601 11.5832 38.6899 11.6718 38.8172 11.6995C38.9464 11.7302 39.0546 11.7036 39.1449 11.6247C39.1867 11.5888 39.2073 11.5466 39.212 11.4985C39.2154 11.4494 39.184 11.391 39.1191 11.3204C39.0549 11.2491 38.9589 11.2086 38.8292 11.1953C38.724 11.1878 38.6557 11.1912 38.6256 11.2081L38.7112 10.8726C38.7677 10.8841 38.8236 10.8945 38.8768 10.9038C38.988 10.9374 39.0782 10.9935 39.1476 11.0687C39.2691 11.2024 39.3311 11.354 39.3345 11.5253C39.3381 11.6953 39.2855 11.8272 39.1785 11.9217Z" fill="#231F20"/>
<path d="M39.1785 11.9217C39.0452 12.0414 38.8979 12.068 38.7373 12.0067C38.6089 11.958 38.477 11.858 38.3406 11.707C38.1992 11.5531 38.1054 11.3708 38.0574 11.163C37.9985 10.8945 37.9962 10.7006 38.0539 10.578L38.1695 10.5895C38.1314 10.6648 38.1395 10.8042 38.1968 11.0079C38.2449 11.1792 38.3219 11.322 38.4267 11.4368C38.5601 11.5832 38.6899 11.6718 38.8172 11.6995C38.9464 11.7302 39.0546 11.7036 39.1449 11.6247C39.1867 11.5888 39.2073 11.5466 39.212 11.4985C39.2154 11.4494 39.184 11.391 39.1191 11.3204C39.0549 11.2491 38.9589 11.2086 38.8292 11.1953C38.724 11.1878 38.6557 11.1912 38.6256 11.2081L38.7112 10.8726C38.7677 10.8841 38.8236 10.8945 38.8768 10.9038C38.988 10.9374 39.0782 10.9935 39.1476 11.0687C39.2691 11.2024 39.3311 11.354 39.3345 11.5253C39.3381 11.6953 39.2855 11.8272 39.1785 11.9217Z" stroke="#231F20" stroke-width="0.1019"/>
<path d="M41.0487 12.954C40.9618 12.9205 40.8954 12.8891 40.8483 12.8601C40.6991 12.7775 40.591 12.6837 40.522 12.5841C40.4017 12.4069 40.3682 12.2033 40.4202 11.9719C40.4729 11.7392 40.5811 11.5703 40.7444 11.4614C40.9138 11.3487 41.087 11.3393 41.2607 11.4342C41.3971 11.5072 41.5319 11.6409 41.6633 11.8336L41.753 11.9655L41.5753 12.2756C41.5591 12.2363 41.5404 12.1958 41.5194 12.1541C41.4978 12.1136 41.4746 12.0718 41.4459 12.0304C41.2053 11.6774 40.9685 11.58 40.7353 11.7345C40.6264 11.8064 40.5673 11.8932 40.5606 11.9926C40.5507 12.0922 40.5768 12.1871 40.6381 12.275C40.7492 12.4405 40.8995 12.5683 41.0841 12.6621C41.2271 12.7316 41.3174 12.7617 41.3556 12.7513L41.0487 12.954ZM42.2456 11.8312L41.4823 10.7168L41.687 10.5803L42.4505 11.6947L42.2456 11.8312Z" fill="#231F20"/>
<path d="M41.0487 12.954C40.9618 12.9205 40.8954 12.8891 40.8483 12.8601C40.6991 12.7775 40.591 12.6837 40.522 12.5841C40.4017 12.4069 40.3682 12.2033 40.4202 11.9719C40.4729 11.7392 40.5811 11.5703 40.7444 11.4614C40.9138 11.3487 41.087 11.3393 41.2607 11.4342C41.3971 11.5072 41.5319 11.6409 41.6633 11.8336L41.753 11.9655L41.5753 12.2756C41.5591 12.2363 41.5404 12.1958 41.5194 12.1541C41.4978 12.1136 41.4746 12.0718 41.4459 12.0304C41.2053 11.6774 40.9685 11.58 40.7353 11.7345C40.6264 11.8064 40.5673 11.8932 40.5606 11.9926C40.5507 12.0922 40.5768 12.1871 40.6381 12.275C40.7492 12.4405 40.8995 12.5683 41.0841 12.6621C41.2271 12.7316 41.3174 12.7617 41.3556 12.7513L41.0487 12.954ZM42.2456 11.8312L41.4823 10.7168L41.687 10.5803L42.4505 11.6947L42.2456 11.8312Z" stroke="#231F20" stroke-width="0.1019"/>
<path d="M42.8277 12.6848L42.565 12.2989L40.4967 13.6721L40.5071 13.3052L42.3948 12.0512L42.2193 11.7942L42.4243 11.6582L43.0318 12.5483L42.8277 12.6848Z" fill="#231F20"/>
<path d="M42.8277 12.6848L42.565 12.2989L40.4967 13.6721L40.5071 13.3052L42.3948 12.0512L42.2193 11.7942L42.4243 11.6582L43.0318 12.5483L42.8277 12.6848Z" stroke="#231F20" stroke-width="0.1019"/>
<path d="M43.4029 13.5274L43.1389 13.1409L41.0718 14.5142L41.0824 14.146L42.9705 12.8931L42.7941 12.6363L42.9995 12.4998L43.6078 13.3908L43.4029 13.5274Z" fill="#231F20"/>
<path d="M43.4029 13.5274L43.1389 13.1409L41.0718 14.5142L41.0824 14.146L42.9705 12.8931L42.7941 12.6363L42.9995 12.4998L43.6078 13.3908L43.4029 13.5274Z" stroke="#231F20" stroke-width="0.1019"/>
<path d="M44.5354 15.9141L44.2748 15.3538L43.7042 15.612L43.2992 14.7382C43.2564 14.6479 43.1882 14.626 43.0886 14.6698C43.0366 14.6931 42.9972 14.7462 42.9731 14.8283C42.9631 14.8527 42.9558 14.892 42.9511 14.943C42.9795 14.9718 43.0041 14.9984 43.0232 15.0227C43.084 15.099 43.1397 15.1929 43.1906 15.3028C43.2748 15.4846 43.29 15.6698 43.2391 15.8584C43.1941 16.0319 43.1119 16.1443 42.9928 16.1987C42.8482 16.2647 42.6964 16.2572 42.5408 16.1738C42.4902 16.1465 42.4279 16.0985 42.3532 16.0279L42.5414 15.6715C42.598 15.7764 42.6418 15.8504 42.6767 15.896C42.7885 16.0367 42.8909 16.0865 42.9847 16.0449C43.0536 16.0135 43.0927 15.9511 43.0999 15.8561C43.1055 15.7625 43.0808 15.6536 43.0227 15.5299C42.9359 15.3413 42.8298 15.2138 42.7051 15.1496C42.5784 15.0826 42.4475 15.0814 42.3111 15.1421C42.1258 15.2262 42.028 15.4466 42.0216 15.8041C42.0125 16.124 42.0309 16.3012 42.0773 16.3348L41.9742 16.307C41.9228 16.021 41.8979 15.8035 41.9003 15.6512C41.9059 15.1895 42.045 14.8972 42.318 14.7734C42.4188 14.7283 42.5379 14.73 42.6758 14.7803C42.7209 14.7931 42.7785 14.8237 42.8508 14.8688C42.8724 14.7889 42.8932 14.7276 42.9116 14.6858C42.9724 14.5551 43.0557 14.4648 43.161 14.4174C43.2455 14.3802 43.3197 14.3733 43.3821 14.3966C43.4469 14.4196 43.4954 14.4672 43.5279 14.5389L43.8625 15.2599L44.1685 15.1223L43.6216 13.9429L43.848 13.8423L44.7611 15.8134L44.5354 15.9141Z" fill="#231F20"/>
<path d="M44.5354 15.9141L44.2748 15.3538L43.7042 15.612L43.2992 14.7382C43.2564 14.6479 43.1882 14.626 43.0886 14.6698C43.0366 14.6931 42.9972 14.7462 42.9731 14.8283C42.9631 14.8527 42.9558 14.892 42.9511 14.943C42.9795 14.9718 43.0041 14.9984 43.0232 15.0227C43.084 15.099 43.1397 15.1929 43.1906 15.3028C43.2748 15.4846 43.29 15.6698 43.2391 15.8584C43.1941 16.0319 43.1119 16.1443 42.9928 16.1987C42.8482 16.2647 42.6964 16.2572 42.5408 16.1738C42.4902 16.1465 42.4279 16.0985 42.3532 16.0279L42.5414 15.6715C42.598 15.7764 42.6418 15.8504 42.6767 15.896C42.7885 16.0367 42.8909 16.0865 42.9847 16.0449C43.0536 16.0135 43.0927 15.9511 43.0999 15.8561C43.1055 15.7625 43.0808 15.6536 43.0227 15.5299C42.9359 15.3413 42.8298 15.2138 42.7051 15.1496C42.5784 15.0826 42.4475 15.0814 42.3111 15.1421C42.1258 15.2262 42.028 15.4466 42.0216 15.8041C42.0125 16.124 42.0309 16.3012 42.0773 16.3348L41.9742 16.307C41.9228 16.021 41.8979 15.8035 41.9003 15.6512C41.9059 15.1895 42.045 14.8972 42.318 14.7734C42.4188 14.7283 42.5379 14.73 42.6758 14.7803C42.7209 14.7931 42.7785 14.8237 42.8508 14.8688C42.8724 14.7889 42.8932 14.7276 42.9116 14.6858C42.9724 14.5551 43.0557 14.4648 43.161 14.4174C43.2455 14.3802 43.3197 14.3733 43.3821 14.3966C43.4469 14.4196 43.4954 14.4672 43.5279 14.5389L43.8625 15.2599L44.1685 15.1223L43.6216 13.9429L43.848 13.8423L44.7611 15.8134L44.5354 15.9141Z" stroke="#231F20" stroke-width="0.1019"/>
<path d="M44.9678 16.8505L44.7727 16.4269L42.5054 17.447L42.5759 17.0871L44.6467 16.1547L44.5159 15.8723L44.7408 15.7718L45.1934 16.7496L44.9678 16.8505Z" fill="#231F20"/>
<path d="M44.9678 16.8505L44.7727 16.4269L42.5054 17.447L42.5759 17.0871L44.6467 16.1547L44.5159 15.8723L44.7408 15.7718L45.1934 16.7496L44.9678 16.8505Z" stroke="#231F20" stroke-width="0.1019"/>
<path d="M45.7193 19.5535L45.5764 18.9973L44.904 19.168C44.8497 19.1808 44.6979 19.0036 44.4525 18.6355C44.2067 18.2668 44.0081 18.1002 43.856 18.1395C43.6756 18.1858 43.5622 18.2934 43.5211 18.4636C43.4874 18.5968 43.4943 18.7517 43.5401 18.9278C43.5766 19.0666 43.6355 19.1963 43.7188 19.3156C43.8291 19.4718 43.9186 19.5644 43.9909 19.5922L43.7029 19.825C43.6357 19.7659 43.5616 19.6723 43.4817 19.5437C43.3996 19.4129 43.3458 19.2961 43.3179 19.1883C43.2507 18.9325 43.2689 18.6837 43.3728 18.4431C43.4937 18.1536 43.7103 17.9708 44.0226 17.892C44.1848 17.8504 44.3798 17.9998 44.606 18.3389C44.8334 18.6781 44.9754 18.8406 45.0343 18.8262L45.5013 18.7082L45.1502 17.3551L45.3897 17.2938L45.9607 19.4935L45.7193 19.5535Z" fill="#231F20"/>
<path d="M45.7193 19.5535L45.5764 18.9973L44.904 19.168C44.8497 19.1808 44.6979 19.0036 44.4525 18.6355C44.2067 18.2668 44.0081 18.1002 43.856 18.1395C43.6756 18.1858 43.5622 18.2934 43.5211 18.4636C43.4874 18.5968 43.4943 18.7517 43.5401 18.9278C43.5766 19.0666 43.6355 19.1963 43.7188 19.3156C43.8291 19.4718 43.9186 19.5644 43.9909 19.5922L43.7029 19.825C43.6357 19.7659 43.5616 19.6723 43.4817 19.5437C43.3996 19.4129 43.3458 19.2961 43.3179 19.1883C43.2507 18.9325 43.2689 18.6837 43.3728 18.4431C43.4937 18.1536 43.7103 17.9708 44.0226 17.892C44.1848 17.8504 44.3798 17.9998 44.606 18.3389C44.8334 18.6781 44.9754 18.8406 45.0343 18.8262L45.5013 18.7082L45.1502 17.3551L45.3897 17.2938L45.9607 19.4935L45.7193 19.5535Z" stroke="#231F20" stroke-width="0.1019"/>
<path d="M45.9945 20.6096L45.8631 20.105L43.4506 20.715L43.5848 20.3724L45.7891 19.8156L45.7105 19.5159L45.9495 19.4545L46.0645 19.8943C46.2502 19.7578 46.388 19.6431 46.4741 19.5506C46.7343 19.2704 46.8289 18.9973 46.7612 18.7335C46.7295 18.6085 46.6559 18.5274 46.543 18.4893C46.4581 18.4604 46.3509 18.4615 46.2247 18.4938C46.1112 18.5228 46.0049 18.591 45.9071 18.6999C45.8757 18.7346 45.8405 18.7866 45.7989 18.8515L45.7704 18.7421C45.7721 18.708 45.8267 18.6352 45.9318 18.5262C46.072 18.3803 46.2218 18.2873 46.3859 18.2462C46.5307 18.2101 46.651 18.2172 46.7505 18.2657C46.8789 18.3294 46.9653 18.4498 47.0127 18.6338C47.0881 18.9219 46.9594 19.2426 46.6277 19.5956C46.5195 19.7126 46.3437 19.8629 46.1032 20.0447L46.235 20.5497L45.9945 20.6096Z" fill="#231F20"/>
<path d="M45.9945 20.6096L45.8631 20.105L43.4506 20.715L43.5848 20.3724L45.7891 19.8156L45.7105 19.5159L45.9495 19.4545L46.0645 19.8943C46.2502 19.7578 46.388 19.6431 46.4741 19.5506C46.7343 19.2704 46.8289 18.9973 46.7612 18.7335C46.7295 18.6085 46.6559 18.5274 46.543 18.4893C46.4581 18.4604 46.3509 18.4615 46.2247 18.4938C46.1112 18.5228 46.0049 18.591 45.9071 18.6999C45.8757 18.7346 45.8405 18.7866 45.7989 18.8515L45.7704 18.7421C45.7721 18.708 45.8267 18.6352 45.9318 18.5262C46.072 18.3803 46.2218 18.2873 46.3859 18.2462C46.5307 18.2101 46.651 18.2172 46.7505 18.2657C46.8789 18.3294 46.9653 18.4498 47.0127 18.6338C47.0881 18.9219 46.9594 19.2426 46.6277 19.5956C46.5195 19.7126 46.3437 19.8629 46.1032 20.0447L46.235 20.5497L45.9945 20.6096Z" stroke="#231F20" stroke-width="0.1019"/>
</g>
<defs>
<clipPath id="clip0_101_9735">
<rect width="47.6127" height="48" fill="white"/>
</clipPath>
</defs>
</svg>
