<svg width="24" height="24" viewBox="0 0 24 24" fill="none" xmlns="http://www.w3.org/2000/svg">
<path d="M21.6277 11.7726L18.2227 9.78906V15.5861H22.0002V12.4206C22.0002 12.1536 21.8582 11.9071 21.6277 11.7726Z" fill="#103262"/>
<path d="M6.5 5H11.5V9.5H6.5V5Z" fill="#0084D7"/>
<path d="M11.5 5H16.5V9.5H11.5V5Z" fill="#33AFEC"/>
<path d="M16.5 5H21.5V9.5H16.5V5Z" fill="#54DAFF"/>
<path d="M11.5 9.5H16.5V14H11.5V9.5Z" fill="#027AD4"/>
<path d="M11.5 14H16.5V18.5H11.5V14Z" fill="#0553A4"/>
<path d="M16.5 9.5H21.5V14H16.5V9.5Z" fill="#25A2E5"/>
<path d="M16.5 14H21.5V18.5H16.5V14Z" fill="#0262B8"/>
<path opacity="0.019" d="M6.5 18.4982H21.5V12.1172L14.495 16.1172L6.5 12.1172V18.4982Z" fill="black"/>
<path opacity="0.038" d="M6.5 18.4964H21.5V12.2344L14.495 16.2344L6.5 12.2344V18.4964Z" fill="black"/>
<path opacity="0.057" d="M6.5 18.5024H21.5V12.3594L14.495 16.3594L6.5 12.3594V18.5024Z" fill="black"/>
<path opacity="0.076" d="M6.5 18.5006H21.5V12.4766L14.495 16.4766L6.5 12.4766V18.5006Z" fill="black"/>
<path opacity="0.095" d="M6.5 18.4987H21.5V12.5938L14.495 16.5937L6.5 12.5938V18.4987Z" fill="black"/>
<path opacity="0.114" d="M6.5 18.4964H21.5V12.7109L14.495 16.7109L6.5 12.7109V18.4964Z" fill="black"/>
<path opacity="0.133" d="M6.5 18.5024H21.5V12.8359L14.495 16.8359L6.5 12.8359V18.5024Z" fill="black"/>
<path opacity="0.152" d="M6.5 18.5006H21.5V12.9531L14.495 16.9531L6.5 12.9531V18.5006Z" fill="black"/>
<path opacity="0.171" d="M6.5 18.4988H21.5V13.0703L14.495 17.0703L6.5 13.0703V18.4988Z" fill="black"/>
<path opacity="0.191" d="M6.5 18.497H21.5V13.1875L14.495 17.1875L6.5 13.1875V18.497Z" fill="black"/>
<path opacity="0.209" d="M6.5 18.503H21.5V13.3125L14.495 17.3125L6.5 13.3125V18.503Z" fill="black"/>
<path opacity="0.229" d="M6.5 18.5012H21.5V13.4297L14.495 17.4297L6.5 13.4297V18.5012Z" fill="black"/>
<path opacity="0.248" d="M6.5 18.4994H21.5V13.5469L14.495 17.5469L6.5 13.5469V18.4994Z" fill="black"/>
<path opacity="0.267" d="M6.5 18.4976H21.5V13.6641L14.495 17.6641L6.5 13.6641V18.4976Z" fill="black"/>
<path opacity="0.286" d="M6.5 18.5036H21.5V13.7891L14.495 17.7891L6.5 13.7891V18.5036Z" fill="black"/>
<path opacity="0.305" d="M6.5 18.5013H21.5V13.9062L14.495 17.9063L6.5 13.9062V18.5013Z" fill="black"/>
<path opacity="0.324" d="M6.5 18.4994H21.5V14.0234L14.495 18.0234L6.5 14.0234V18.4994Z" fill="black"/>
<path opacity="0.343" d="M6.5 18.4976H21.5V14.1406L14.495 18.1406L6.5 14.1406V18.4976Z" fill="black"/>
<path opacity="0.362" d="M6.5 18.5036H21.5V14.2656L14.495 18.2656L6.5 14.2656V18.5036Z" fill="black"/>
<path opacity="0.381" d="M6.5 18.5018H21.5V14.3828L14.495 18.3828L6.5 14.3828V18.5018Z" fill="black"/>
<path opacity="0.4" d="M6.5 18.5H21.5V14.5L14.495 18.5L6.5 14.5V18.5Z" fill="black"/>
<path d="M7.71959 21.0004H21.0011C21.5531 21.0004 22.0006 20.5559 22.0011 20.0034C22.0026 17.7429 21.9991 12.4219 21.9991 12.4219C21.9991 12.4219 21.9956 12.5329 21.1236 13.0279C20.2516 13.5229 7.37109 20.7834 7.37109 20.7834C7.37109 20.7834 7.48809 21.0004 7.71959 21.0004Z" fill="url(#paint0_linear_2217_84814)"/>
<path d="M21.5 5H6.5V4C6.5 3.4475 6.9475 3 7.5 3H20.5C21.0525 3 21.5 3.4475 21.5 4V5Z" fill="url(#paint1_linear_2217_84814)"/>
<path d="M6.5 12.5V20C6.5 20.5525 6.9475 21 7.5 21H15H21.002C21.233 21 21.4435 20.919 21.6125 20.7875L6.5 12.5Z" fill="url(#paint2_linear_2217_84814)"/>
<path opacity="0.05" d="M10.6595 6.5H6.5V18.5H10.6595C11.676 18.5 12.5 17.676 12.5 16.6595V8.3405C12.5 7.324 11.676 6.5 10.6595 6.5Z" fill="black"/>
<path opacity="0.07" d="M10.6065 17.9976H6.5V6.66406H10.6065C11.4685 6.66406 12.167 7.36256 12.167 8.22456V16.4371C12.1665 17.2991 11.468 17.9976 10.6065 17.9976Z" fill="black"/>
<path opacity="0.09" d="M10.553 17.5024H6.5V6.83594H10.553C11.26 6.83594 11.833 7.40894 11.833 8.11594V16.2224C11.8335 16.9294 11.26 17.5024 10.553 17.5024Z" fill="black"/>
<path d="M10.5 17H2.5C1.9475 17 1.5 16.5525 1.5 16V8C1.5 7.4475 1.9475 7 2.5 7H10.5C11.0525 7 11.5 7.4475 11.5 8V16C11.5 16.5525 11.0525 17 10.5 17Z" fill="url(#paint3_linear_2217_84814)"/>
<path d="M6.50031 9.34375C4.94481 9.34375 4.00781 10.5323 4.00781 11.9983C4.00781 13.4643 4.94131 14.6528 6.50031 14.6528C8.05981 14.6528 8.99281 13.4642 8.99281 11.9987C8.99281 10.5322 8.05581 9.34375 6.50031 9.34375ZM6.50031 13.7568C5.61781 13.7568 5.09031 12.9697 5.09031 11.9987C5.09031 11.0277 5.62031 10.2408 6.50031 10.2408C7.38031 10.2408 7.91081 11.0282 7.91081 11.9987C7.91081 12.9692 7.38231 13.7568 6.50031 13.7568Z" fill="white"/>
<defs>
<linearGradient id="paint0_linear_2217_84814" x1="19.4616" y1="12.2789" x2="16.1421" y2="18.0124" gradientUnits="userSpaceOnUse">
<stop stop-color="#31ABEC"/>
<stop offset="1" stop-color="#1582D5"/>
</linearGradient>
<linearGradient id="paint1_linear_2217_84814" x1="6.8325" y1="3.496" x2="20.6425" y2="4.537" gradientUnits="userSpaceOnUse">
<stop offset="0.042" stop-color="#076DB4"/>
<stop offset="0.85" stop-color="#0461AF"/>
</linearGradient>
<linearGradient id="paint2_linear_2217_84814" x1="14.0765" y1="16.609" x2="11.819" y2="20.55" gradientUnits="userSpaceOnUse">
<stop stop-color="#33ACEE"/>
<stop offset="1" stop-color="#1B8EDF"/>
</linearGradient>
<linearGradient id="paint3_linear_2217_84814" x1="1.765" y1="7.265" x2="11.205" y2="16.705" gradientUnits="userSpaceOnUse">
<stop stop-color="#1784D8"/>
<stop offset="1" stop-color="#0864C5"/>
</linearGradient>
</defs>
</svg>
