<svg width="28" height="28" viewBox="0 0 28 28" fill="none" xmlns="http://www.w3.org/2000/svg">
<path d="M14 3.33334C11.0544 3.33334 8.66663 5.72115 8.66663 8.66667C8.66663 11.6122 11.0544 14 14 14C16.9455 14 19.3333 11.6122 19.3333 8.66667C19.3333 5.72115 16.9455 3.33334 14 3.33334ZM7.34493 15.3333C5.87083 15.3333 4.66663 16.5158 4.66663 18C4.66663 20.2549 5.77704 21.9551 7.51328 23.0621C9.22258 24.152 11.527 24.6667 14 24.6667C16.4729 24.6667 18.7773 24.152 20.4866 23.0621C22.2229 21.9551 23.3333 20.2549 23.3333 18C23.3333 16.5274 22.1393 15.3333 20.6667 15.3333L7.34493 15.3333Z" fill="#2164E8"/>
</svg>
