<svg width="24" height="24" viewBox="0 0 24 24" fill="none" xmlns="http://www.w3.org/2000/svg">
<path d="M14.9998 16.6667C15.5521 16.6667 15.9998 17.1144 15.9998 17.6667C15.9998 18.219 15.5521 18.6667 14.9998 18.6667H8.99984C8.44755 18.6667 7.99984 18.219 7.99984 17.6667C7.99984 17.1144 8.44755 16.6667 8.99984 16.6667H14.9998ZM17.6665 11C18.2188 11 18.6665 11.4478 18.6665 12C18.6665 12.5523 18.2188 13 17.6665 13H6.33317C5.78089 13 5.33317 12.5523 5.33317 12C5.33317 11.4478 5.78089 11 6.33317 11H17.6665ZM20.3332 5.33337C20.8855 5.33337 21.3332 5.78109 21.3332 6.33337C21.3332 6.88566 20.8855 7.33337 20.3332 7.33337H3.6665C3.11422 7.33337 2.6665 6.88566 2.6665 6.33337C2.6665 5.78109 3.11422 5.33337 3.6665 5.33337H20.3332Z" fill="#201F1E"/>
</svg>
