<svg width="24" height="24" viewBox="0 0 24 24" fill="none" xmlns="http://www.w3.org/2000/svg">
<path d="M7.75001 6.00001C7.51478 6.00001 7.30484 6.1083 7.16733 6.27775L4.22162 9.22346C3.92873 9.51636 3.92873 9.99123 4.22162 10.2841C4.51452 10.577 4.98939 10.577 5.28228 10.2841L7.00001 8.5664V17.25C7.00001 17.6642 7.3358 18 7.75001 18C8.16422 18 8.50001 17.6642 8.50001 17.25V8.5559L10.2327 10.2886C10.5256 10.5815 11.0005 10.5815 11.2934 10.2886C11.5863 9.99575 11.5863 9.52087 11.2934 9.22798L8.2851 6.21967C8.1377 6.07227 7.9432 5.99905 7.75001 6.00001ZM7.75001 6.00001C7.74968 6.00001 7.75034 6.00001 7.75001 6.00001V6.00001ZM16.252 18C16.4872 18 16.6971 17.8917 16.8346 17.7223L19.7803 14.7765C20.0732 14.4837 20.0732 14.0088 19.7803 13.7159C19.4874 13.423 19.0126 13.423 18.7197 13.7159L17.002 15.4336L17.002 6.75C17.002 6.33579 16.6662 6 16.252 6C15.8377 6 15.502 6.33579 15.502 6.75L15.502 15.4441L13.7692 13.7114C13.4763 13.4185 13.0014 13.4185 12.7086 13.7114C12.4157 14.0043 12.4157 14.4791 12.7086 14.772L15.7169 17.7803C15.8643 17.9277 16.0588 18.001 16.252 18ZM16.252 18C16.2516 18 16.2523 18 16.252 18V18Z" fill="#8D9096"/>
</svg>
